ISO-10303-21;
HEADER;
FILE_DESCRIPTION (( 'STEP AP214' ),
    '1' );
FILE_NAME ('Orbi_PowerSwitch.STEP',
    '2026-10-08T10:23:29',
    ( '' ),
    ( '' ),
    'SwSTEP 2.0',
    'SolidWorks 2026',
    '' );
FILE_SCHEMA (( 'AUTOMOTIVE_DESIGN' ));
ENDSEC;

DATA;
#1 = ORIENTED_EDGE ( 'NONE', *, *, #1111, .T. ) ;
#2 = DIRECTION ( 'NONE',  ( 0.000000000000000000, 0.000000000000000000, 1.000000000000000000 ) ) ;
#3 = ORIENTED_EDGE ( 'NONE', *, *, #417, .T. ) ;
#4 = EDGE_CURVE ( 'NONE', #311, #367, #384, .T. ) ;
#5 = DIRECTION ( 'NONE',  ( 0.000000000000000000, -1.000000000000000000, 0.000000000000000000 ) ) ;
#6 = DIRECTION ( 'NONE',  ( 1.582898502718374752E-55, 1.000000000000000000, -1.058335477494178735E-47 ) ) ;
#7 = ORIENTED_EDGE ( 'NONE', *, *, #698, .F. ) ;
#8 = DIRECTION ( 'NONE',  ( 0.000000000000000000, 0.000000000000000000, -1.000000000000000000 ) ) ;
#9 = VERTEX_POINT ( 'NONE', #644 ) ;
#10 = EDGE_CURVE ( 'NONE', #1000, #949, #551, .T. ) ;
#11 = APPLICATION_CONTEXT ( 'automotive_design' ) ;
#12 = DIRECTION ( 'NONE',  ( 1.582898502718374752E-55, 1.000000000000000000, -1.058335477494178735E-47 ) ) ;
#13 = AXIS2_PLACEMENT_3D ( 'NONE', #1070, #411, #589 ) ;
#14 = DIRECTION ( 'NONE',  ( 1.582898502718374752E-55, 1.000000000000000000, -1.058335477494178735E-47 ) ) ;
#15 = CARTESIAN_POINT ( 'NONE',  ( 0.01402432844552688011, 5.178333878462996864, 23.10002255044652486 ) ) ;
#16 = AXIS2_PLACEMENT_3D ( 'NONE', #109, #12, #499 ) ;
#17 = CIRCLE ( 'NONE', #1126, 3.200000000000000178 ) ;
#18 = VERTEX_POINT ( 'NONE', #740 ) ;
#19 = AXIS2_PLACEMENT_3D ( 'NONE', #86, #937, #8 ) ;
#20 = CYLINDRICAL_SURFACE ( 'NONE', #155, 1.975000014956492800 ) ;
#21 = CARTESIAN_POINT ( 'NONE',  ( 0.000000000000000000, 3.678333878462997308, 5.500000000000000000 ) ) ;
#22 = ORIENTED_EDGE ( 'NONE', *, *, #225, .T. ) ;
#23 = CARTESIAN_POINT ( 'NONE',  ( -3.200000000000000178, 0.9000000000000050182, -2.299999999999999822 ) ) ;
#24 = CARTESIAN_POINT ( 'NONE',  ( -1.975000014956492800, 4.678333878462996864, 0.4499999999999992339 ) ) ;
#25 = EDGE_CURVE ( 'NONE', #352, #1064, #378, .T. ) ;
#26 = ORIENTED_EDGE ( 'NONE', *, *, #863, .F. ) ;
#27 = CARTESIAN_POINT ( 'NONE',  ( -1.713366569169595399, 4.978333878462997575, -1.150000000000001021 ) ) ;
#28 = ORIENTED_EDGE ( 'NONE', *, *, #591, .F. ) ;
#29 = DIRECTION ( 'NONE',  ( -1.675237642699271707E-102, -1.058335477494178735E-47, -1.000000000000000000 ) ) ;
#30 = CARTESIAN_POINT ( 'NONE',  ( -0.9000000000000003553, 0.09999999999999982514, -0.09999999999999667488 ) ) ;
#31 = ADVANCED_FACE ( 'NONE', ( #480 ), #758, .T. ) ;
#32 = VECTOR ( 'NONE', #973, 1000.000000000000000 ) ;
#33 = ORIENTED_EDGE ( 'NONE', *, *, #1043, .F. ) ;
#34 = FACE_OUTER_BOUND ( 'NONE', #42, .T. ) ;
#35 = AXIS2_PLACEMENT_3D ( 'NONE', #859, #479, #388 ) ;
#36 = VECTOR ( 'NONE', #798, 1000.000000000000000 ) ;
#37 = AXIS2_PLACEMENT_3D ( 'NONE', #916, #245, #727 ) ;
#38 = CARTESIAN_POINT ( 'NONE',  ( -1.975000014956492800, 4.978333878462997575, 0.6499999999999992450 ) ) ;
#39 = LINE ( 'NONE', #1080, #1047 ) ;
#40 = ORIENTED_EDGE ( 'NONE', *, *, #914, .T. ) ;
#41 = DIRECTION ( 'NONE',  ( 0.000000000000000000, 0.000000000000000000, -1.000000000000000000 ) ) ;
#42 = EDGE_LOOP ( 'NONE', ( #475, #1049, #1015, #50, #144, #892 ) ) ;
#43 = ADVANCED_FACE ( 'NONE', ( #753 ), #662, .T. ) ;
#44 = CARTESIAN_POINT ( 'NONE',  ( 1.961680579672532065, 4.678333878462996864, 0.7289855069950592625 ) ) ;
#45 = CARTESIAN_POINT ( 'NONE',  ( 0.000000000000000000, 0.9000000000000050182, 5.500000000000000000 ) ) ;
#46 = DIRECTION ( 'NONE',  ( -1.495649104565898617E-08, 1.058335477494178857E-47, 0.9999999999999998890 ) ) ;
#47 = EDGE_LOOP ( 'NONE', ( #163, #582, #318, #287 ) ) ;
#48 = EDGE_CURVE ( 'NONE', #1187, #261, #959, .T. ) ;
#49 = CARTESIAN_POINT ( 'NONE',  ( 1.961680594629024332, 4.678333878462996864, -1.228985506995061483 ) ) ;
#50 = ORIENTED_EDGE ( 'NONE', *, *, #184, .T. ) ;
#51 = CARTESIAN_POINT ( 'NONE',  ( -1.961680564716039576, 11.90923282886482149, -1.228985506995061483 ) ) ;
#52 = ORIENTED_EDGE ( 'NONE', *, *, #1145, .T. ) ;
#53 = CONICAL_SURFACE ( 'NONE', #747, 2.399999999999999023, 0.7853981633974456145 ) ;
#54 = VECTOR ( 'NONE', #374, 1000.000000000000000 ) ;
#55 = LINE ( 'NONE', #1192, #1213 ) ;
#56 = EDGE_CURVE ( 'NONE', #596, #1081, #936, .T. ) ;
#57 = CYLINDRICAL_SURFACE ( 'NONE', #567, 3.199999999999999734 ) ;
#58 = ORIENTED_EDGE ( 'NONE', *, *, #995, .T. ) ;
#59 = DIRECTION ( 'NONE',  ( 0.000000000000000000, -1.000000000000000000, 0.000000000000000000 ) ) ;
#60 = ORIENTED_EDGE ( 'NONE', *, *, #555, .T. ) ;
#61 = CARTESIAN_POINT ( 'NONE',  ( -0.9000000000000003553, 2.000000000000000000, -0.09999999999999667488 ) ) ;
#62 = CARTESIAN_POINT ( 'NONE',  ( 1.495649272461381952E-08, 3.678333878462996864, -0.9999999999999974465 ) ) ;
#63 = ORIENTED_EDGE ( 'NONE', *, *, #647, .F. ) ;
#64 = EDGE_CURVE ( 'NONE', #449, #742, #557, .T. ) ;
#65 = CARTESIAN_POINT ( 'NONE',  ( 1.975000014956492800, 3.678333878462996864, -1.000000000000001110 ) ) ;
#66 = ORIENTED_EDGE ( 'NONE', *, *, #451, .T. ) ;
#67 = DIRECTION ( 'NONE',  ( 0.000000000000000000, 0.000000000000000000, -1.000000000000000000 ) ) ;
#68 = FILL_AREA_STYLE ('',( #733 ) ) ;
#69 = ORIENTED_EDGE ( 'NONE', *, *, #995, .F. ) ;
#70 = CARTESIAN_POINT ( 'NONE',  ( -4.940986689993609777E-25, 4.978333878462997575, 0.4999999999999991673 ) ) ;
#71 = ADVANCED_FACE ( 'NONE', ( #842 ), #285, .T. ) ;
#72 = AXIS2_PLACEMENT_3D ( 'NONE', #1034, #860, #577 ) ;
#73 = ORIENTED_EDGE ( 'NONE', *, *, #130, .T. ) ;
#74 = CIRCLE ( 'NONE', #625, 1.975000014956492800 ) ;
#75 = DIRECTION ( 'NONE',  ( 0.000000000000000000, 0.000000000000000000, -1.000000000000000000 ) ) ;
#76 = AXIS2_PLACEMENT_3D ( 'NONE', #1122, #951, #478 ) ;
#77 = APPLICATION_CONTEXT ( 'automotive_design' ) ;
#78 = CARTESIAN_POINT ( 'NONE',  ( 1.713366584126088554, 4.978333878462997575, 0.4499999999999992339 ) ) ;
#79 = ORIENTED_EDGE ( 'NONE', *, *, #1162, .F. ) ;
#80 = DIRECTION ( 'NONE',  ( 0.1159420279802422654, -0.000000000000000000, 0.9932559821857751547 ) ) ;
#81 = ORIENTED_EDGE ( 'NONE', *, *, #1227, .F. ) ;
#82 = CARTESIAN_POINT ( 'NONE',  ( 1.713366599082580599, 4.978333878462997575, -1.150000000000001021 ) ) ;
#83 = EDGE_CURVE ( 'NONE', #347, #742, #220, .T. ) ;
#84 = CARTESIAN_POINT ( 'NONE',  ( -1.975000014956492800, 4.678333878462996864, -0.9500000000000009548 ) ) ;
#85 = CARTESIAN_POINT ( 'NONE',  ( 0.01402432844552754451, 5.178333878462996864, -1.150000000000001688 ) ) ;
#86 = CARTESIAN_POINT ( 'NONE',  ( 1.713366584126088554, 4.678333878462996864, 0.6999999999999992895 ) ) ;
#87 = ORIENTED_EDGE ( 'NONE', *, *, #174, .F. ) ;
#88 = DIRECTION ( 'NONE',  ( 1.582898502718374752E-55, 1.000000000000000000, -1.058335477494178735E-47 ) ) ;
#89 = EDGE_CURVE ( 'NONE', #242, #102, #566, .T. ) ;
#90 = CARTESIAN_POINT ( 'NONE',  ( 0.000000000000000000, 0.09999999999999939493, 2.299999999999999378 ) ) ;
#91 = DIRECTION ( 'NONE',  ( 0.000000000000000000, 0.000000000000000000, -1.000000000000000000 ) ) ;
#92 = ORIENTED_EDGE ( 'NONE', *, *, #978, .T. ) ;
#93 = CARTESIAN_POINT ( 'NONE',  ( 1.713366584126088554, 5.178333878462996864, 0.6999999999999992895 ) ) ;
#94 = CLOSED_SHELL ( 'NONE', ( #295, #1059, #578, #1037, #1170, #488, #962, #856, #289, #1001, #874, #622, #518, #933, #210, #124, #436, #1021, #31, #691, #1014, #1236, #681, #869, #561, #1143, #1090, #71, #476, #739, #166, #205, #920, #923, #1054, #544, #971, #401, #257, #43, #117, #393 ) ) ;
#95 = CARTESIAN_POINT ( 'NONE',  ( 0.000000000000000000, 0.09999999999999939493, -2.299999999999999378 ) ) ;
#96 = EDGE_CURVE ( 'NONE', #349, #813, #875, .T. ) ;
#97 = CIRCLE ( 'NONE', #508, 0.2500000000000000000 ) ;
#98 = CIRCLE ( 'NONE', #76, 0.1999999999999999278 ) ;
#99 = ORIENTED_EDGE ( 'NONE', *, *, #1137, .F. ) ;
#100 =( NAMED_UNIT ( * ) PLANE_ANGLE_UNIT ( ) SI_UNIT ( $, .RADIAN. ) );
#101 = VECTOR ( 'NONE', #1022, 1000.000000000000000 ) ;
#102 = VERTEX_POINT ( 'NONE', #964 ) ;
#103 = DIRECTION ( 'NONE',  ( 1.582898502718374752E-55, 1.000000000000000000, -1.058335477494178735E-47 ) ) ;
#104 = DIRECTION ( 'NONE',  ( 0.000000000000000000, -1.000000000000000000, 0.000000000000000000 ) ) ;
#105 = DIRECTION ( 'NONE',  ( 1.906527704830303504E-31, 1.000000000000000000, 2.851496443976167134E-39 ) ) ;
#106 = LINE ( 'NONE', #765, #1106 ) ;
#107 = EDGE_CURVE ( 'NONE', #901, #349, #1165, .T. ) ;
#108 = ORIENTED_EDGE ( 'NONE', *, *, #363, .T. ) ;
#109 = CARTESIAN_POINT ( 'NONE',  ( 0.000000000000000000, 3.678333878462997308, -2.299999999999999822 ) ) ;
#110 = ORIENTED_EDGE ( 'NONE', *, *, #83, .F. ) ;
#111 =( NAMED_UNIT ( * ) SI_UNIT ( $, .STERADIAN. ) SOLID_ANGLE_UNIT ( ) );
#112 = VERTEX_POINT ( 'NONE', #114 ) ;
#113 = DIRECTION ( 'NONE',  ( 1.000000000000000000, -0.000000000000000000, 0.000000000000000000 ) ) ;
#114 = CARTESIAN_POINT ( 'NONE',  ( -1.713366584126088554, 4.978333878462997575, 0.4499999999999992339 ) ) ;
#115 = TOROIDAL_SURFACE ( 'NONE', #850, 0.04999999999999999584, 0.2000000000000000111 ) ;
#116 = ORIENTED_EDGE ( 'NONE', *, *, #406, .T. ) ;
#117 = ADVANCED_FACE ( 'NONE', ( #125 ), #489, .T. ) ;
#118 = CYLINDRICAL_SURFACE ( 'NONE', #966, 0.1999999999999996503 ) ;
#119 = DIRECTION ( 'NONE',  ( 0.000000000000000000, 0.000000000000000000, -1.000000000000000000 ) ) ;
#120 = EDGE_LOOP ( 'NONE', ( #755, #711, #514, #1092 ) ) ;
#121 = CARTESIAN_POINT ( 'NONE',  ( 0.000000000000000000, 0.9000000000000050182, -5.500000000000000000 ) ) ;
#122 = VERTEX_POINT ( 'NONE', #1180 ) ;
#123 = PLANE ( 'NONE',  #232 ) ;
#124 = ADVANCED_FACE ( 'NONE', ( #1075 ), #1161, .F. ) ;
#125 = FACE_OUTER_BOUND ( 'NONE', #1100, .T. ) ;
#126 = ORIENTED_EDGE ( 'NONE', *, *, #1130, .T. ) ;
#127 = LINE ( 'NONE', #957, #547 ) ;
#128 = CARTESIAN_POINT ( 'NONE',  ( 1.495649272461381952E-08, 5.178333878462996864, -0.9999999999999974465 ) ) ;
#129 = CARTESIAN_POINT ( 'NONE',  ( -1.961680564716039576, 4.978333878462997575, -1.228985506995061483 ) ) ;
#130 = EDGE_CURVE ( 'NONE', #1000, #965, #226, .T. ) ;
#131 = SHAPE_DEFINITION_REPRESENTATION ( #784, #255 ) ;
#132 = EDGE_LOOP ( 'NONE', ( #154, #522, #1035, #748, #432 ) ) ;
#133 = EDGE_CURVE ( 'NONE', #813, #949, #39, .T. ) ;
#134 = DIRECTION ( 'NONE',  ( 1.000000000000000000, 0.000000000000000000, 0.000000000000000000 ) ) ;
#135 = CIRCLE ( 'NONE', #884, 3.200000000000000178 ) ;
#136 = CIRCLE ( 'NONE', #452, 0.2500000000000000000 ) ;
#137 = VECTOR ( 'NONE', #658, 1000.000000000000000 ) ;
#138 = CARTESIAN_POINT ( 'NONE',  ( -1.975000014956492800, 11.90923282886482149, -1.000000000000000666 ) ) ;
#139 = CARTESIAN_POINT ( 'NONE',  ( -1.713366584126088554, 5.178333878462996864, 0.6499999999999992450 ) ) ;
#140 = DIRECTION ( 'NONE',  ( 1.000000000000000000, 0.000000000000000000, 0.000000000000000000 ) ) ;
#141 = VERTEX_POINT ( 'NONE', #129 ) ;
#142 = FACE_OUTER_BOUND ( 'NONE', #1238, .T. ) ;
#143 = EDGE_CURVE ( 'NONE', #1183, #917, #775, .T. ) ;
#144 = ORIENTED_EDGE ( 'NONE', *, *, #968, .T. ) ;
#145 = CARTESIAN_POINT ( 'NONE',  ( 1.713366599082580599, 4.978333878462997575, -1.200000000000001066 ) ) ;
#146 = CARTESIAN_POINT ( 'NONE',  ( 0.000000000000000000, 16.50468449440942464, -2.299999999999999822 ) ) ;
#147 = VERTEX_POINT ( 'NONE', #506 ) ;
#148 = PLANE ( 'NONE',  #529 ) ;
#149 = ORIENTED_EDGE ( 'NONE', *, *, #159, .F. ) ;
#150 = CARTESIAN_POINT ( 'NONE',  ( -1.713366584126088554, 4.678333878462996864, 0.6999999999999992895 ) ) ;
#151 = LINE ( 'NONE', #705, #412 ) ;
#152 = ORIENTED_EDGE ( 'NONE', *, *, #4, .F. ) ;
#153 = DIRECTION ( 'NONE',  ( -0.000000000000000000, -1.000000000000000000, -0.000000000000000000 ) ) ;
#154 = ORIENTED_EDGE ( 'NONE', *, *, #239, .F. ) ;
#155 = AXIS2_PLACEMENT_3D ( 'NONE', #685, #597, #879 ) ;
#156 = VECTOR ( 'NONE', #793, 1000.000000000000000 ) ;
#157 = CARTESIAN_POINT ( 'NONE',  ( 3.200000000000000178, 0.9000000000000050182, -2.299999999999999822 ) ) ;
#158 = AXIS2_PLACEMENT_3D ( 'NONE', #301, #754, #673 ) ;
#159 = EDGE_CURVE ( 'NONE', #407, #437, #888, .T. ) ;
#160 = PRESENTATION_STYLE_ASSIGNMENT (( #1005 ) ) ;
#161 = ORIENTED_EDGE ( 'NONE', *, *, #1096, .F. ) ;
#162 = CARTESIAN_POINT ( 'NONE',  ( 3.200000000000000178, 16.50468449440942464, 5.500000000000000000 ) ) ;
#163 = ORIENTED_EDGE ( 'NONE', *, *, #792, .T. ) ;
#164 = LINE ( 'NONE', #535, #36 ) ;
#165 = DIRECTION ( 'NONE',  ( -0.000000000000000000, -1.000000000000000000, 0.000000000000000000 ) ) ;
#166 = ADVANCED_FACE ( 'NONE', ( #871, #419 ), #230, .T. ) ;
#167 = ORIENTED_EDGE ( 'NONE', *, *, #1195, .F. ) ;
#168 = FACE_OUTER_BOUND ( 'NONE', #530, .T. ) ;
#169 = EDGE_LOOP ( 'NONE', ( #876, #116, #371, #872 ) ) ;
#170 = DIRECTION ( 'NONE',  ( 0.000000000000000000, 0.000000000000000000, -1.000000000000000000 ) ) ;
#171 = FACE_OUTER_BOUND ( 'NONE', #862, .T. ) ;
#172 = ORIENTED_EDGE ( 'NONE', *, *, #803, .T. ) ;
#173 = DIRECTION ( 'NONE',  ( -1.675237642699271707E-102, -1.058335477494178735E-47, -1.000000000000000000 ) ) ;
#174 = EDGE_CURVE ( 'NONE', #223, #1107, #789, .T. ) ;
#175 = VERTEX_POINT ( 'NONE', #139 ) ;
#176 = PRESENTATION_LAYER_ASSIGNMENT (  '', '', ( #702 ) ) ;
#177 = CARTESIAN_POINT ( 'NONE',  ( -0.9000000000000003553, 2.000000000000000000, -0.09999999999999667488 ) ) ;
#178 = CIRCLE ( 'NONE', #492, 1.975000014956492800 ) ;
#179 = DIRECTION ( 'NONE',  ( 2.744815605759345430E-17, -1.058335477494178735E-47, -1.000000000000000000 ) ) ;
#180 = VECTOR ( 'NONE', #1128, 1000.000000000000000 ) ;
#181 = CARTESIAN_POINT ( 'NONE',  ( 1.495649272461381952E-08, 11.90923282886482149, -2.975000014956490357 ) ) ;
#182 = LINE ( 'NONE', #829, #730 ) ;
#183 = ORIENTED_EDGE ( 'NONE', *, *, #863, .T. ) ;
#184 = EDGE_CURVE ( 'NONE', #1107, #209, #505, .T. ) ;
#185 = CARTESIAN_POINT ( 'NONE',  ( 0.9000000000000002442, 2.000000000000000000, -1.899999999999997025 ) ) ;
#186 = DIRECTION ( 'NONE',  ( -0.000000000000000000, -1.000000000000000000, -0.000000000000000000 ) ) ;
#187 = ORIENTED_EDGE ( 'NONE', *, *, #325, .T. ) ;
#188 = CARTESIAN_POINT ( 'NONE',  ( 0.000000000000000000, 16.50468449440942464, 2.299999999999999378 ) ) ;
#189 = DIRECTION ( 'NONE',  ( 0.000000000000000000, 0.000000000000000000, -1.000000000000000000 ) ) ;
#190 = EDGE_LOOP ( 'NONE', ( #613, #381, #641, #553 ) ) ;
#191 = DIRECTION ( 'NONE',  ( -1.582898502718374752E-55, -1.000000000000000000, 1.058335477494178735E-47 ) ) ;
#192 = ORIENTED_EDGE ( 'NONE', *, *, #325, .F. ) ;
#193 = DIRECTION ( 'NONE',  ( -1.084202172485506406E-15, 1.000000000000000000, 0.000000000000000000 ) ) ;
#194 = VECTOR ( 'NONE', #1062, 1000.000000000000000 ) ;
#195 = CARTESIAN_POINT ( 'NONE',  ( 0.000000000000000000, 0.1000000000000000056, -2.299999999999999822 ) ) ;
#196 = EDGE_CURVE ( 'NONE', #915, #1198, #397, .T. ) ;
#197 = AXIS2_PLACEMENT_3D ( 'NONE', #934, #459, #975 ) ;
#198 = VERTEX_POINT ( 'NONE', #304 ) ;
#199 = DIRECTION ( 'NONE',  ( -2.904935734754790157E-64, -1.000000000000000000, 1.058335477494178735E-47 ) ) ;
#200 = AXIS2_PLACEMENT_3D ( 'NONE', #528, #59, #438 ) ;
#201 = EDGE_LOOP ( 'NONE', ( #700, #58, #810, #626 ) ) ;
#202 = CYLINDRICAL_SURFACE ( 'NONE', #236, 0.2500000000000000000 ) ;
#203 = DIRECTION ( 'NONE',  ( 0.000000000000000000, 0.000000000000000000, 1.000000000000000000 ) ) ;
#204 = DIRECTION ( 'NONE',  ( 0.000000000000000000, 0.000000000000000000, -1.000000000000000000 ) ) ;
#205 = ADVANCED_FACE ( 'NONE', ( #1057 ), #208, .F. ) ;
#206 = ORIENTED_EDGE ( 'NONE', *, *, #56, .F. ) ;
#207 = DIRECTION ( 'NONE',  ( 0.000000000000000000, 0.000000000000000000, -1.000000000000000000 ) ) ;
#208 = PLANE ( 'NONE',  #351 ) ;
#209 = VERTEX_POINT ( 'NONE', #21 ) ;
#210 = ADVANCED_FACE ( 'NONE', ( #402 ), #338, .T. ) ;
#211 = FACE_OUTER_BOUND ( 'NONE', #1119, .T. ) ;
#212 = AXIS2_PLACEMENT_3D ( 'NONE', #424, #358, #238 ) ;
#213 = DIRECTION ( 'NONE',  ( 1.906527704830303285E-31, 1.000000000000000000, -2.181521350167880551E-48 ) ) ;
#214 = CIRCLE ( 'NONE', #298, 0.04999999999999991257 ) ;
#215 = VECTOR ( 'NONE', #723, 1000.000000000000000 ) ;
#216 = ORIENTED_EDGE ( 'NONE', *, *, #814, .T. ) ;
#217 = CIRCLE ( 'NONE', #1172, 0.1999999999999999278 ) ;
#218 = EDGE_CURVE ( 'NONE', #198, #102, #713, .T. ) ;
#219 = DIRECTION ( 'NONE',  ( -1.495649104565898617E-08, 1.058335477494178857E-47, 0.9999999999999998890 ) ) ;
#220 = LINE ( 'NONE', #1174, #981 ) ;
#221 = EDGE_LOOP ( 'NONE', ( #391, #1181, #1127, #263 ) ) ;
#222 = FACE_OUTER_BOUND ( 'NONE', #439, .T. ) ;
#223 = VERTEX_POINT ( 'NONE', #893 ) ;
#224 = FACE_OUTER_BOUND ( 'NONE', #1109, .T. ) ;
#225 = EDGE_CURVE ( 'NONE', #915, #629, #1166, .T. ) ;
#226 = LINE ( 'NONE', #327, #1147 ) ;
#227 = PRODUCT_DEFINITION_CONTEXT ( 'detailed design', #77, 'design' ) ;
#228 = EDGE_LOOP ( 'NONE', ( #1041, #291, #680, #1148 ) ) ;
#229 = DIRECTION ( 'NONE',  ( 1.582898502718374752E-55, 1.000000000000000000, -1.058335477494178735E-47 ) ) ;
#230 = PLANE ( 'NONE',  #13 ) ;
#231 = EDGE_CURVE ( 'NONE', #764, #520, #1209, .T. ) ;
#232 = AXIS2_PLACEMENT_3D ( 'NONE', #864, #958, #219 ) ;
#233 = ORIENTED_EDGE ( 'NONE', *, *, #196, .T. ) ;
#234 = CARTESIAN_POINT ( 'NONE',  ( 0.9000000000000002442, -3.400000000000000355, -1.899999999999997025 ) ) ;
#235 = AXIS2_PLACEMENT_3D ( 'NONE', #1086, #427, #67 ) ;
#236 = AXIS2_PLACEMENT_3D ( 'NONE', #782, #1168, #930 ) ;
#237 = DIRECTION ( 'NONE',  ( 0.000000000000000000, 0.000000000000000000, -1.000000000000000000 ) ) ;
#238 = DIRECTION ( 'NONE',  ( 0.000000000000000000, 0.000000000000000000, -1.000000000000000000 ) ) ;
#239 = EDGE_CURVE ( 'NONE', #1060, #261, #296, .T. ) ;
#240 = ORIENTED_EDGE ( 'NONE', *, *, #632, .F. ) ;
#241 = CARTESIAN_POINT ( 'NONE',  ( -1.961680564716039132, 4.678333878462996864, -1.228985506995061483 ) ) ;
#242 = VERTEX_POINT ( 'NONE', #1019 ) ;
#243 = SURFACE_SIDE_STYLE ('',( #1205 ) ) ;
#244 = ORIENTED_EDGE ( 'NONE', *, *, #632, .T. ) ;
#245 = DIRECTION ( 'NONE',  ( 0.000000000000000000, -1.000000000000000000, 0.000000000000000000 ) ) ;
#246 = ORIENTED_EDGE ( 'NONE', *, *, #363, .F. ) ;
#247 = EDGE_CURVE ( 'NONE', #223, #311, #332, .T. ) ;
#248 = LINE ( 'NONE', #61, #1006 ) ;
#249 = MANIFOLD_SOLID_BREP ( '\X2\501289d2\X0\1', #94 ) ;
#250 = ORIENTED_EDGE ( 'NONE', *, *, #48, .T. ) ;
#251 = LINE ( 'NONE', #855, #357 ) ;
#252 = COLOUR_RGB ( '',0.7921568627450980005, 0.8196078431372548767, 0.9333333333333333481 ) ;
#253 = ORIENTED_EDGE ( 'NONE', *, *, #1096, .T. ) ;
#254 = VECTOR ( 'NONE', #279, 1000.000000000000000 ) ;
#255 = ADVANCED_BREP_SHAPE_REPRESENTATION ( 'Orbi_PowerSwitch', ( #249, #474 ), #1007 ) ;
#256 = CIRCLE ( 'NONE', #587, 0.05000000000000002359 ) ;
#257 = ADVANCED_FACE ( 'NONE', ( #992 ), #536, .T. ) ;
#258 = DIRECTION ( 'NONE',  ( 0.000000000000000000, -1.000000000000000000, 0.000000000000000000 ) ) ;
#259 = CIRCLE ( 'NONE', #200, 1.975000014956492800 ) ;
#260 = CARTESIAN_POINT ( 'NONE',  ( -3.200000000000000178, 0.9000000000000050182, 2.299999999999999378 ) ) ;
#261 = VERTEX_POINT ( 'NONE', #1013 ) ;
#262 = CARTESIAN_POINT ( 'NONE',  ( -0.9000000000000003553, -3.400000000000000355, -0.09999999999999667488 ) ) ;
#263 = ORIENTED_EDGE ( 'NONE', *, *, #1130, .F. ) ;
#264 = DIRECTION ( 'NONE',  ( 0.000000000000000000, 0.000000000000000000, -1.000000000000000000 ) ) ;
#265 = DIRECTION ( 'NONE',  ( 0.000000000000000000, 0.000000000000000000, -1.000000000000000000 ) ) ;
#266 = EDGE_CURVE ( 'NONE', #816, #760, #151, .T. ) ;
#267 = ORIENTED_EDGE ( 'NONE', *, *, #797, .F. ) ;
#268 = DIRECTION ( 'NONE',  ( 0.9932559821857751547, 0.000000000000000000, -0.1159420279802422515 ) ) ;
#269 = ORIENTED_EDGE ( 'NONE', *, *, #1225, .F. ) ;
#270 = CYLINDRICAL_SURFACE ( 'NONE', #728, 3.200000000000000178 ) ;
#271 = CARTESIAN_POINT ( 'NONE',  ( -2.399999999999999023, 0.1000000000000000056, 2.299999999999999378 ) ) ;
#272 = ORIENTED_EDGE ( 'NONE', *, *, #591, .T. ) ;
#273 = EDGE_CURVE ( 'NONE', #917, #766, #1048, .T. ) ;
#274 = FACE_OUTER_BOUND ( 'NONE', #716, .T. ) ;
#275 = ORIENTED_EDGE ( 'NONE', *, *, #746, .T. ) ;
#276 = CONICAL_SURFACE ( 'NONE', #1084, 2.399999999999999023, 0.7853981633974456145 ) ;
#277 = CARTESIAN_POINT ( 'NONE',  ( 1.763029383235377168, 5.178333878462996864, 0.7057971013990111953 ) ) ;
#278 = AXIS2_PLACEMENT_3D ( 'NONE', #150, #524, #348 ) ;
#279 = DIRECTION ( 'NONE',  ( 0.000000000000000000, -1.058335477494178735E-47, -1.000000000000000000 ) ) ;
#280 = AXIS2_PLACEMENT_3D ( 'NONE', #262, #360, #1114 ) ;
#281 = VERTEX_POINT ( 'NONE', #1194 ) ;
#282 = ORIENTED_EDGE ( 'NONE', *, *, #386, .F. ) ;
#283 = CARTESIAN_POINT ( 'NONE',  ( 3.200000000000000178, 16.50468449440942464, 2.299999999999999378 ) ) ;
#284 = DIRECTION ( 'NONE',  ( 0.000000000000000000, 0.000000000000000000, -1.000000000000000000 ) ) ;
#285 = CYLINDRICAL_SURFACE ( 'NONE', #314, 0.1999999999999999833 ) ;
#286 = CARTESIAN_POINT ( 'NONE',  ( 0.000000000000000000, 0.9000000000000050182, 2.299999999999999378 ) ) ;
#287 = ORIENTED_EDGE ( 'NONE', *, *, #331, .F. ) ;
#288 = LINE ( 'NONE', #283, #317 ) ;
#289 = ADVANCED_FACE ( 'NONE', ( #618 ), #57, .T. ) ;
#290 = DIRECTION ( 'NONE',  ( 0.000000000000000000, 0.000000000000000000, -1.000000000000000000 ) ) ;
#291 = ORIENTED_EDGE ( 'NONE', *, *, #647, .T. ) ;
#292 = CARTESIAN_POINT ( 'NONE',  ( 0.000000000000000000, 0.1000000000000000056, -4.699999999999999289 ) ) ;
#293 = ORIENTED_EDGE ( 'NONE', *, *, #1145, .F. ) ;
#294 = CARTESIAN_POINT ( 'NONE',  ( -1.975000014956492800, 11.90923282886482149, -1.000000000000000666 ) ) ;
#295 = ADVANCED_FACE ( 'NONE', ( #515 ), #982, .T. ) ;
#296 = CIRCLE ( 'NONE', #824, 1.975000014956492800 ) ;
#297 = LINE ( 'NONE', #185, #725 ) ;
#298 = AXIS2_PLACEMENT_3D ( 'NONE', #1133, #6, #473 ) ;
#299 = AXIS2_PLACEMENT_3D ( 'NONE', #330, #703, #1078 ) ;
#300 = ORIENTED_EDGE ( 'NONE', *, *, #4, .T. ) ;
#301 = CARTESIAN_POINT ( 'NONE',  ( -1.713366569169595399, 11.90923282886482149, -1.200000000000001066 ) ) ;
#302 = VERTEX_POINT ( 'NONE', #1200 ) ;
#303 = FACE_OUTER_BOUND ( 'NONE', #843, .T. ) ;
#304 = CARTESIAN_POINT ( 'NONE',  ( 0.000000000000000000, 0.9000000000000050182, 5.500000000000000000 ) ) ;
#305 = CYLINDRICAL_SURFACE ( 'NONE', #158, 0.2500000000000000000 ) ;
#306 = EDGE_CURVE ( 'NONE', #122, #929, #97, .T. ) ;
#307 = EDGE_LOOP ( 'NONE', ( #1023, #726, #267, #293 ) ) ;
#308 = DIRECTION ( 'NONE',  ( 0.000000000000000000, 1.000000000000000000, 0.000000000000000000 ) ) ;
#309 = CARTESIAN_POINT ( 'NONE',  ( -0.9000000000000002442, -3.400000000000000355, -1.899999999999997025 ) ) ;
#310 = EDGE_CURVE ( 'NONE', #352, #469, #135, .T. ) ;
#311 = VERTEX_POINT ( 'NONE', #271 ) ;
#312 = VECTOR ( 'NONE', #204, 1000.000000000000000 ) ;
#313 = LINE ( 'NONE', #1052, #1066 ) ;
#314 = AXIS2_PLACEMENT_3D ( 'NONE', #657, #370, #693 ) ;
#315 = DIRECTION ( 'NONE',  ( 0.7071067811865457964, 0.7071067811865492381, 0.000000000000000000 ) ) ;
#316 = CIRCLE ( 'NONE', #16, 3.199999999999999734 ) ;
#317 = VECTOR ( 'NONE', #844, 1000.000000000000000 ) ;
#318 = ORIENTED_EDGE ( 'NONE', *, *, #1043, .T. ) ;
#319 = FACE_OUTER_BOUND ( 'NONE', #190, .T. ) ;
#320 = AXIS2_PLACEMENT_3D ( 'NONE', #162, #837, #1222 ) ;
#321 = PLANE ( 'NONE',  #1169 ) ;
#322 = DIRECTION ( 'NONE',  ( 0.000000000000000000, 1.000000000000000000, 0.000000000000000000 ) ) ;
#323 = ORIENTED_EDGE ( 'NONE', *, *, #792, .F. ) ;
#324 = PLANE ( 'NONE',  #1085 ) ;
#325 = EDGE_CURVE ( 'NONE', #389, #998, #1211, .T. ) ;
#326 = CARTESIAN_POINT ( 'NONE',  ( 0.9000000000000001332, 0.09999999999999982514, -0.09999999999999653610 ) ) ;
#327 = CARTESIAN_POINT ( 'NONE',  ( 0.9000000000000002442, 0.09999999999999982514, -1.899999999999997025 ) ) ;
#328 = ORIENTED_EDGE ( 'NONE', *, *, #1185, .F. ) ;
#329 = CARTESIAN_POINT ( 'NONE',  ( -0.9000000000000002442, -3.400000000000000355, -1.899999999999997025 ) ) ;
#330 = CARTESIAN_POINT ( 'NONE',  ( 1.713366584126088554, 4.978333878462997575, 0.6999999999999992895 ) ) ;
#331 = EDGE_CURVE ( 'NONE', #1081, #389, #214, .T. ) ;
#332 = LINE ( 'NONE', #260, #1231 ) ;
#333 = ORIENTED_EDGE ( 'NONE', *, *, #48, .F. ) ;
#334 = CYLINDRICAL_SURFACE ( 'NONE', #985, 3.200000000000000178 ) ;
#335 = AXIS2_PLACEMENT_3D ( 'NONE', #294, #980, #595 ) ;
#336 = ORIENTED_EDGE ( 'NONE', *, *, #905, .T. ) ;
#337 = CARTESIAN_POINT ( 'NONE',  ( -1.975000014956492800, 4.978333878462997575, 0.4499999999999992339 ) ) ;
#338 = CYLINDRICAL_SURFACE ( 'NONE', #665, 1.975000014956492800 ) ;
#339 = ORIENTED_EDGE ( 'NONE', *, *, #501, .F. ) ;
#340 = CARTESIAN_POINT ( 'NONE',  ( -4.940986689993609777E-25, 5.178333878462996864, 0.4999999999999991673 ) ) ;
#341 = ORIENTED_EDGE ( 'NONE', *, *, #380, .T. ) ;
#342 = CARTESIAN_POINT ( 'NONE',  ( 1.713366599082580599, 11.90923282886482149, -1.200000000000001066 ) ) ;
#343 = CARTESIAN_POINT ( 'NONE',  ( -1.713366569169595399, 4.678333878462996864, -1.200000000000001066 ) ) ;
#344 = ORIENTED_EDGE ( 'NONE', *, *, #638, .T. ) ;
#345 = PLANE ( 'NONE',  #320 ) ;
#346 = EDGE_CURVE ( 'NONE', #367, #1183, #1125, .T. ) ;
#347 = VERTEX_POINT ( 'NONE', #1033 ) ;
#348 = DIRECTION ( 'NONE',  ( 0.000000000000000000, 0.000000000000000000, -1.000000000000000000 ) ) ;
#349 = VERTEX_POINT ( 'NONE', #763 ) ;
#350 = CARTESIAN_POINT ( 'NONE',  ( -1.763029383235377168, 4.978333878462997575, 0.7057971013990111953 ) ) ;
#351 = AXIS2_PLACEMENT_3D ( 'NONE', #581, #213, #493 ) ;
#352 = VERTEX_POINT ( 'NONE', #952 ) ;
#353 = CIRCLE ( 'NONE', #666, 0.1999999999999996503 ) ;
#354 = VECTOR ( 'NONE', #617, 1000.000000000000000 ) ;
#355 = LINE ( 'NONE', #1110, #1153 ) ;
#356 = EDGE_CURVE ( 'NONE', #112, #175, #450, .T. ) ;
#357 = VECTOR ( 'NONE', #2, 1000.000000000000000 ) ;
#358 = DIRECTION ( 'NONE',  ( 0.000000000000000000, -1.000000000000000000, 0.000000000000000000 ) ) ;
#359 = ORIENTED_EDGE ( 'NONE', *, *, #762, .T. ) ;
#360 = DIRECTION ( 'NONE',  ( 1.000000000000000000, -1.906527704830303285E-31, 6.023345402697246719E-17 ) ) ;
#361 = ORIENTED_EDGE ( 'NONE', *, *, #671, .F. ) ;
#362 = LINE ( 'NONE', #751, #1067 ) ;
#363 = EDGE_CURVE ( 'NONE', #141, #1187, #684, .T. ) ;
#364 = CARTESIAN_POINT ( 'NONE',  ( 1.975000014956492800, 3.678333878462996864, -1.000000000000001110 ) ) ;
#365 = EDGE_LOOP ( 'NONE', ( #1189, #444, #849, #446 ) ) ;
#366 = DIRECTION ( 'NONE',  ( -1.582898502718374752E-55, -1.000000000000000000, 1.058335477494178735E-47 ) ) ;
#367 = VERTEX_POINT ( 'NONE', #1146 ) ;
#368 = DIRECTION ( 'NONE',  ( -1.000000000000000000, 1.582898499813438959E-55, -2.744815605759345430E-17 ) ) ;
#369 = DIRECTION ( 'NONE',  ( 0.000000000000000000, 0.000000000000000000, 1.000000000000000000 ) ) ;
#370 = DIRECTION ( 'NONE',  ( -1.000000000000000000, 1.582898499813438959E-55, -2.744815605759345430E-17 ) ) ;
#371 = ORIENTED_EDGE ( 'NONE', *, *, #638, .F. ) ;
#372 = VECTOR ( 'NONE', #1157, 1000.000000000000000 ) ;
#373 = CIRCLE ( 'NONE', #448, 0.04999999999999991257 ) ;
#374 = DIRECTION ( 'NONE',  ( 2.904935734754790157E-64, 1.000000000000000000, -1.058335477494178735E-47 ) ) ;
#375 = AXIS2_PLACEMENT_3D ( 'NONE', #1132, #743, #193 ) ;
#376 = DIRECTION ( 'NONE',  ( 0.000000000000000000, 1.000000000000000000, 0.000000000000000000 ) ) ;
#377 = AXIS2_PLACEMENT_3D ( 'NONE', #70, #366, #741 ) ;
#378 = LINE ( 'NONE', #1221, #783 ) ;
#379 = CARTESIAN_POINT ( 'NONE',  ( -1.713366569169595399, 4.978333878462997575, -1.200000000000001066 ) ) ;
#380 = EDGE_CURVE ( 'NONE', #949, #1020, #297, .T. ) ;
#381 = ORIENTED_EDGE ( 'NONE', *, *, #273, .F. ) ;
#382 = CARTESIAN_POINT ( 'NONE',  ( -1.975000014956492800, 4.678333878462996864, 0.4499999999999992339 ) ) ;
#383 = DIRECTION ( 'NONE',  ( -1.000000000000000000, 1.582898502718374752E-55, -1.675237642699271707E-102 ) ) ;
#384 = LINE ( 'NONE', #1045, #312 ) ;
#385 = ORIENTED_EDGE ( 'NONE', *, *, #1079, .F. ) ;
#386 = EDGE_CURVE ( 'NONE', #998, #1187, #353, .T. ) ;
#387 = DIRECTION ( 'NONE',  ( -1.582898502718374752E-55, -1.000000000000000000, 1.058335477494178735E-47 ) ) ;
#388 = DIRECTION ( 'NONE',  ( 8.881784198151559435E-16, 0.000000000000000000, -1.000000000000000000 ) ) ;
#389 = VERTEX_POINT ( 'NONE', #944 ) ;
#390 = CARTESIAN_POINT ( 'NONE',  ( -1.975000014956492800, 4.678333878462996864, -0.9500000000000009548 ) ) ;
#391 = ORIENTED_EDGE ( 'NONE', *, *, #1079, .T. ) ;
#392 = AXIS2_PLACEMENT_3D ( 'NONE', #898, #919, #997 ) ;
#393 = ADVANCED_FACE ( 'NONE', ( #669 ), #276, .T. ) ;
#394 = LINE ( 'NONE', #678, #1004 ) ;
#395 = VECTOR ( 'NONE', #1219, 1000.000000000000000 ) ;
#396 = CIRCLE ( 'NONE', #1087, 1.775000014956492844 ) ;
#397 = LINE ( 'NONE', #772, #372 ) ;
#398 = DIRECTION ( 'NONE',  ( -0.000000000000000000, -1.000000000000000000, -0.000000000000000000 ) ) ;
#399 = ORIENTED_EDGE ( 'NONE', *, *, #762, .F. ) ;
#400 = LINE ( 'NONE', #592, #1233 ) ;
#401 = ADVANCED_FACE ( 'NONE', ( #171 ), #53, .T. ) ;
#402 = FACE_OUTER_BOUND ( 'NONE', #532, .T. ) ;
#403 = ORIENTED_EDGE ( 'NONE', *, *, #1178, .F. ) ;
#404 = DIRECTION ( 'NONE',  ( 0.7071067811865457964, -0.7071067811865492381, 0.000000000000000000 ) ) ;
#405 = DIRECTION ( 'NONE',  ( 0.000000000000000000, -1.000000000000000000, 1.058335477494178735E-47 ) ) ;
#406 = EDGE_CURVE ( 'NONE', #742, #917, #785, .T. ) ;
#407 = VERTEX_POINT ( 'NONE', #78 ) ;
#408 = FACE_OUTER_BOUND ( 'NONE', #1115, .T. ) ;
#409 = VERTEX_POINT ( 'NONE', #1226 ) ;
#410 = DIRECTION ( 'NONE',  ( -1.000000000000000000, 1.582898502718374752E-55, -1.675237642699271707E-102 ) ) ;
#411 = DIRECTION ( 'NONE',  ( 0.000000000000000000, -1.000000000000000000, 0.000000000000000000 ) ) ;
#412 = VECTOR ( 'NONE', #906, 1000.000000000000000 ) ;
#413 = AXIS2_PLACEMENT_3D ( 'NONE', #1042, #1018, #170 ) ;
#414 = EDGE_LOOP ( 'NONE', ( #425, #854, #456, #838, #511, #621, #777, #99, #1097, #534, #946, #539 ) ) ;
#415 = DIRECTION ( 'NONE',  ( 0.000000000000000000, 0.000000000000000000, -1.000000000000000000 ) ) ;
#416 = AXIS2_PLACEMENT_3D ( 'NONE', #15, #1237, #1040 ) ;
#417 = EDGE_CURVE ( 'NONE', #9, #596, #373, .T. ) ;
#418 = DIRECTION ( 'NONE',  ( -1.000000000000000000, 0.000000000000000000, -7.529181753371557474E-17 ) ) ;
#419 = FACE_BOUND ( 'NONE', #1131, .T. ) ;
#420 = EDGE_LOOP ( 'NONE', ( #344, #979, #941, #339 ) ) ;
#421 = DIRECTION ( 'NONE',  ( 0.000000000000000000, 0.000000000000000000, -1.000000000000000000 ) ) ;
#422 = EDGE_CURVE ( 'NONE', #1198, #1060, #1220, .T. ) ;
#423 = DIRECTION ( 'NONE',  ( 6.023345402697245486E-17, 0.000000000000000000, -1.000000000000000000 ) ) ;
#424 = CARTESIAN_POINT ( 'NONE',  ( -4.940986689993609777E-25, 4.678333878462996864, 0.4999999999999991673 ) ) ;
#425 = ORIENTED_EDGE ( 'NONE', *, *, #1065, .T. ) ;
#426 = DIRECTION ( 'NONE',  ( 0.000000000000000000, 1.000000000000000000, 0.000000000000000000 ) ) ;
#427 = DIRECTION ( 'NONE',  ( 0.000000000000000000, -1.000000000000000000, 0.000000000000000000 ) ) ;
#428 = CARTESIAN_POINT ( 'NONE',  ( 1.495649272461381952E-08, 4.978333878462997575, -0.9999999999999974465 ) ) ;
#429 = AXIS2_PLACEMENT_3D ( 'NONE', #744, #1240, #460 ) ;
#430 = EDGE_LOOP ( 'NONE', ( #275, #889, #527, #1031 ) ) ;
#431 = DIRECTION ( 'NONE',  ( 0.000000000000000000, 1.000000000000000000, 0.000000000000000000 ) ) ;
#432 = ORIENTED_EDGE ( 'NONE', *, *, #451, .F. ) ;
#433 = VECTOR ( 'NONE', #955, 1000.000000000000000 ) ;
#434 = LINE ( 'NONE', #811, #606 ) ;
#435 = DIRECTION ( 'NONE',  ( 0.000000000000000000, 0.000000000000000000, -1.000000000000000000 ) ) ;
#436 = ADVANCED_FACE ( 'NONE', ( #1026 ), #661, .F. ) ;
#437 = VERTEX_POINT ( 'NONE', #550 ) ;
#438 = DIRECTION ( 'NONE',  ( 0.000000000000000000, 0.000000000000000000, -1.000000000000000000 ) ) ;
#439 = EDGE_LOOP ( 'NONE', ( #600, #542, #1071, #1008 ) ) ;
#440 = LINE ( 'NONE', #337, #354 ) ;
#441 = DIRECTION ( 'NONE',  ( -0.9932559821857752658, 0.000000000000000000, -0.1159420279802406417 ) ) ;
#442 = ORIENTED_EDGE ( 'NONE', *, *, #1111, .F. ) ;
#443 = CARTESIAN_POINT ( 'NONE',  ( 1.713366599082580599, 5.178333878462996864, -1.150000000000001021 ) ) ;
#444 = ORIENTED_EDGE ( 'NONE', *, *, #722, .F. ) ;
#445 = DIRECTION ( 'NONE',  ( 1.906527704830303504E-31, 1.000000000000000000, 2.851496443976167134E-39 ) ) ;
#446 = ORIENTED_EDGE ( 'NONE', *, *, #821, .F. ) ;
#447 = AXIS2_PLACEMENT_3D ( 'NONE', #699, #322, #986 ) ;
#448 = AXIS2_PLACEMENT_3D ( 'NONE', #455, #835, #290 ) ;
#449 = VERTEX_POINT ( 'NONE', #935 ) ;
#450 = CIRCLE ( 'NONE', #545, 0.1999999999999999833 ) ;
#451 = EDGE_CURVE ( 'NONE', #261, #281, #74, .T. ) ;
#452 = AXIS2_PLACEMENT_3D ( 'NONE', #1116, #642, #756 ) ;
#453 = LINE ( 'NONE', #833, #395 ) ;
#454 = CIRCLE ( 'NONE', #513, 3.200000000000000178 ) ;
#455 = CARTESIAN_POINT ( 'NONE',  ( -1.713366569169595399, 5.178333878462996864, -1.200000000000001066 ) ) ;
#456 = ORIENTED_EDGE ( 'NONE', *, *, #615, .T. ) ;
#457 = FACE_OUTER_BOUND ( 'NONE', #414, .T. ) ;
#458 = ORIENTED_EDGE ( 'NONE', *, *, #1218, .F. ) ;
#459 = DIRECTION ( 'NONE',  ( -1.582898502718374752E-55, -1.000000000000000000, 1.058335477494178735E-47 ) ) ;
#460 = DIRECTION ( 'NONE',  ( 0.000000000000000000, 0.000000000000000000, -1.000000000000000000 ) ) ;
#461 = DIRECTION ( 'NONE',  ( 1.000000000000000000, -1.582898499813438959E-55, 2.744815605759345430E-17 ) ) ;
#462 = FACE_OUTER_BOUND ( 'NONE', #559, .T. ) ;
#463 = EDGE_LOOP ( 'NONE', ( #108, #250, #66, #361, #40, #1 ) ) ;
#464 = CARTESIAN_POINT ( 'NONE',  ( -4.940986689993609777E-25, 4.978333878462997575, 0.4999999999999991673 ) ) ;
#465 = DIRECTION ( 'NONE',  ( 0.000000000000000000, 0.000000000000000000, 1.000000000000000000 ) ) ;
#466 = EDGE_CURVE ( 'NONE', #1107, #795, #1124, .T. ) ;
#467 = ORIENTED_EDGE ( 'NONE', *, *, #96, .T. ) ;
#468 = CARTESIAN_POINT ( 'NONE',  ( 0.000000000000000000, 0.000000000000000000, 0.000000000000000000 ) ) ;
#469 = VERTEX_POINT ( 'NONE', #778 ) ;
#470 = CIRCLE ( 'NONE', #490, 1.975000014956492800 ) ;
#471 = CARTESIAN_POINT ( 'NONE',  ( -1.961680579672532065, 4.678333878462996864, 0.7289855069950592625 ) ) ;
#472 = CIRCLE ( 'NONE', #235, 2.399999999999999467 ) ;
#473 = DIRECTION ( 'NONE',  ( 0.000000000000000000, 0.000000000000000000, -1.000000000000000000 ) ) ;
#474 = AXIS2_PLACEMENT_3D ( 'NONE', #468, #848, #140 ) ;
#475 = ORIENTED_EDGE ( 'NONE', *, *, #310, .T. ) ;
#476 = ADVANCED_FACE ( 'NONE', ( #491 ), #646, .T. ) ;
#477 = ORIENTED_EDGE ( 'NONE', *, *, #698, .T. ) ;
#478 = DIRECTION ( 'NONE',  ( -0.9932559821857751547, 0.000000000000000000, -0.1159420279802422515 ) ) ;
#479 = DIRECTION ( 'NONE',  ( 1.582898502718374752E-55, 1.000000000000000000, -1.058335477494178735E-47 ) ) ;
#480 = FACE_OUTER_BOUND ( 'NONE', #938, .T. ) ;
#481 = CARTESIAN_POINT ( 'NONE',  ( -1.713366569169595399, 4.678333878462996864, -0.9500000000000009548 ) ) ;
#482 = EDGE_CURVE ( 'NONE', #965, #901, #1179, .T. ) ;
#483 = ORIENTED_EDGE ( 'NONE', *, *, #840, .F. ) ;
#484 = EDGE_CURVE ( 'NONE', #281, #147, #313, .T. ) ;
#485 = DIRECTION ( 'NONE',  ( -1.000000000000000000, 0.000000000000000000, -7.529181753371557474E-17 ) ) ;
#486 = ORIENTED_EDGE ( 'NONE', *, *, #196, .F. ) ;
#487 = ORIENTED_EDGE ( 'NONE', *, *, #609, .F. ) ;
#488 = ADVANCED_FACE ( 'NONE', ( #576 ), #123, .F. ) ;
#489 = CONICAL_SURFACE ( 'NONE', #447, 2.399999999999999023, 0.7853981633974456145 ) ;
#490 = AXIS2_PLACEMENT_3D ( 'NONE', #969, #586, #1164 ) ;
#491 = FACE_OUTER_BOUND ( 'NONE', #1203, .T. ) ;
#492 = AXIS2_PLACEMENT_3D ( 'NONE', #1182, #1077, #415 ) ;
#493 = DIRECTION ( 'NONE',  ( -4.406877174397913351E-17, 1.058335477494178614E-47, 1.000000000000000000 ) ) ;
#494 = VERTEX_POINT ( 'NONE', #885 ) ;
#495 = DIRECTION ( 'NONE',  ( 0.000000000000000000, 0.000000000000000000, -1.000000000000000000 ) ) ;
#496 = DIRECTION ( 'NONE',  ( -0.000000000000000000, 1.058335477494178735E-47, 1.000000000000000000 ) ) ;
#497 = ORIENTED_EDGE ( 'NONE', *, *, #510, .T. ) ;
#498 = CARTESIAN_POINT ( 'NONE',  ( 0.000000000000000000, 3.678333878462997308, 2.299999999999999378 ) ) ;
#499 = DIRECTION ( 'NONE',  ( 0.000000000000000000, 0.000000000000000000, -1.000000000000000000 ) ) ;
#500 = DIRECTION ( 'NONE',  ( 6.023345402697246719E-17, 0.000000000000000000, -1.000000000000000000 ) ) ;
#501 = EDGE_CURVE ( 'NONE', #469, #795, #316, .T. ) ;
#502 = ORIENTED_EDGE ( 'NONE', *, *, #406, .F. ) ;
#503 = DIRECTION ( 'NONE',  ( -1.000000000000000000, 1.906527704830303285E-31, -6.023345402697246719E-17 ) ) ;
#504 = DIRECTION ( 'NONE',  ( 1.582898502718374752E-55, 1.000000000000000000, -1.058335477494178735E-47 ) ) ;
#505 = CIRCLE ( 'NONE', #1063, 3.200000000000000178 ) ;
#506 = CARTESIAN_POINT ( 'NONE',  ( -1.975000014956492800, 3.678333878462996864, 0.4999999999999988343 ) ) ;
#507 = PRODUCT_CONTEXT ( 'NONE', #11, 'mechanical' ) ;
#508 = AXIS2_PLACEMENT_3D ( 'NONE', #343, #104, #841 ) ;
#509 = AXIS2_PLACEMENT_3D ( 'NONE', #612, #983, #802 ) ;
#510 = EDGE_CURVE ( 'NONE', #147, #1198, #704, .T. ) ;
#511 = ORIENTED_EDGE ( 'NONE', *, *, #306, .T. ) ;
#512 = DIRECTION ( 'NONE',  ( 0.000000000000000000, 0.000000000000000000, -1.000000000000000000 ) ) ;
#513 = AXIS2_PLACEMENT_3D ( 'NONE', #896, #426, #801 ) ;
#514 = ORIENTED_EDGE ( 'NONE', *, *, #671, .T. ) ;
#515 = FACE_OUTER_BOUND ( 'NONE', #774, .T. ) ;
#516 = DIRECTION ( 'NONE',  ( 0.000000000000000000, 0.000000000000000000, 1.000000000000000000 ) ) ;
#517 = EDGE_LOOP ( 'NONE', ( #709, #336, #483, #974 ) ) ;
#518 = ADVANCED_FACE ( 'NONE', ( #224 ), #20, .T. ) ;
#519 = CARTESIAN_POINT ( 'NONE',  ( -1.975000014956492800, 4.678333878462996864, -1.000000000000000666 ) ) ;
#520 = VERTEX_POINT ( 'NONE', #1155 ) ;
#521 = CARTESIAN_POINT ( 'NONE',  ( 0.01402432844552688011, 3.678333878462996864, 23.10002255044652486 ) ) ;
#522 = ORIENTED_EDGE ( 'NONE', *, *, #422, .F. ) ;
#523 = EDGE_CURVE ( 'NONE', #1142, #175, #394, .T. ) ;
#524 = DIRECTION ( 'NONE',  ( 0.000000000000000000, -1.000000000000000000, 0.000000000000000000 ) ) ;
#525 = VECTOR ( 'NONE', #405, 1000.000000000000000 ) ;
#526 = AXIS2_PLACEMENT_3D ( 'NONE', #128, #504, #207 ) ;
#527 = ORIENTED_EDGE ( 'NONE', *, *, #174, .T. ) ;
#528 = CARTESIAN_POINT ( 'NONE',  ( -4.940986689993609777E-25, 4.678333878462996864, 0.4999999999999991673 ) ) ;
#529 = AXIS2_PLACEMENT_3D ( 'NONE', #329, #796, #1091 ) ;
#530 = EDGE_LOOP ( 'NONE', ( #1206, #1229, #172, #571 ) ) ;
#531 = DIRECTION ( 'NONE',  ( -1.675237642699271707E-102, -1.058335477494178735E-47, -1.000000000000000000 ) ) ;
#532 = EDGE_LOOP ( 'NONE', ( #333, #60, #831, #1136, #253, #659 ) ) ;
#533 = CARTESIAN_POINT ( 'NONE',  ( 1.763029398191869435, 4.978333878462997575, -1.205797101399013194 ) ) ;
#534 = ORIENTED_EDGE ( 'NONE', *, *, #776, .T. ) ;
#535 = CARTESIAN_POINT ( 'NONE',  ( -0.9000000000000003553, -3.400000000000000355, -0.09999999999999667488 ) ) ;
#536 = PLANE ( 'NONE',  #392 ) ;
#537 = ORIENTED_EDGE ( 'NONE', *, *, #573, .F. ) ;
#538 = LINE ( 'NONE', #922, #1193 ) ;
#539 = ORIENTED_EDGE ( 'NONE', *, *, #225, .F. ) ;
#540 = CARTESIAN_POINT ( 'NONE',  ( -0.9000000000000002442, 2.000000000000000000, -1.899999999999997025 ) ) ;
#541 = CARTESIAN_POINT ( 'NONE',  ( 0.000000000000000000, 0.9000000000000050182, -2.299999999999999378 ) ) ;
#542 = ORIENTED_EDGE ( 'NONE', *, *, #1118, .T. ) ;
#543 = DIRECTION ( 'NONE',  ( 0.1159420279802406417, -0.000000000000000000, 0.9932559821857752658 ) ) ;
#544 = ADVANCED_FACE ( 'NONE', ( #211 ), #786, .T. ) ;
#545 = AXIS2_PLACEMENT_3D ( 'NONE', #656, #651, #189 ) ;
#546 = ORIENTED_EDGE ( 'NONE', *, *, #107, .T. ) ;
#547 = VECTOR ( 'NONE', #1188, 1000.000000000000000 ) ;
#548 = CIRCLE ( 'NONE', #931, 2.399999999999999911 ) ;
#549 = CARTESIAN_POINT ( 'NONE',  ( -0.9000000000000003553, 0.09999999999999982514, -0.09999999999999667488 ) ) ;
#550 = CARTESIAN_POINT ( 'NONE',  ( 1.713366584126088554, 4.678333878462996864, 0.4499999999999992339 ) ) ;
#551 = LINE ( 'NONE', #1134, #881 ) ;
#552 = LINE ( 'NONE', #390, #137 ) ;
#553 = ORIENTED_EDGE ( 'NONE', *, *, #346, .F. ) ;
#554 = FACE_OUTER_BOUND ( 'NONE', #201, .T. ) ;
#555 = EDGE_CURVE ( 'NONE', #1187, #816, #470, .T. ) ;
#556 = CARTESIAN_POINT ( 'NONE',  ( 1.495649272461381952E-08, 4.978333878462997575, -2.775000014956490180 ) ) ;
#557 = LINE ( 'NONE', #745, #846 ) ;
#558 = APPLICATION_PROTOCOL_DEFINITION ( 'draft international standard', 'automotive_design', 1998, #11 ) ;
#559 = EDGE_LOOP ( 'NONE', ( #619, #828, #187, #819, #3 ) ) ;
#560 = DIRECTION ( 'NONE',  ( 1.084202172485503842E-15, 0.000000000000000000, -1.000000000000000000 ) ) ;
#561 = ADVANCED_FACE ( 'NONE', ( #303 ), #118, .T. ) ;
#562 = DIRECTION ( 'NONE',  ( 0.000000000000000000, -1.000000000000000000, 0.000000000000000000 ) ) ;
#563 = ORIENTED_EDGE ( 'NONE', *, *, #386, .T. ) ;
#564 = DIRECTION ( 'NONE',  ( -1.582898502718374752E-55, -1.000000000000000000, 1.058335477494178735E-47 ) ) ;
#565 = EDGE_LOOP ( 'NONE', ( #1121, #69, #736, #1089 ) ) ;
#566 = CIRCLE ( 'NONE', #1102, 2.399999999999999911 ) ;
#567 = AXIS2_PLACEMENT_3D ( 'NONE', #146, #165, #435 ) ;
#568 = LINE ( 'NONE', #382, #668 ) ;
#569 = DIRECTION ( 'NONE',  ( 0.000000000000000000, -1.000000000000000000, 0.000000000000000000 ) ) ;
#570 = CIRCLE ( 'NONE', #19, 0.2500000000000000000 ) ;
#571 = ORIENTED_EDGE ( 'NONE', *, *, #25, .T. ) ;
#572 = CARTESIAN_POINT ( 'NONE',  ( -3.200000000000000178, 0.9000000000000050182, 2.299999999999999378 ) ) ;
#573 = EDGE_CURVE ( 'NONE', #998, #9, #804, .T. ) ;
#574 = ORIENTED_EDGE ( 'NONE', *, *, #523, .T. ) ;
#575 = PLANE ( 'NONE',  #335 ) ;
#576 = FACE_OUTER_BOUND ( 'NONE', #729, .T. ) ;
#577 = DIRECTION ( 'NONE',  ( 0.000000000000000000, 0.000000000000000000, -1.000000000000000000 ) ) ;
#578 = ADVANCED_FACE ( 'NONE', ( #580 ), #321, .F. ) ;
#579 = ORIENTED_EDGE ( 'NONE', *, *, #770, .F. ) ;
#580 = FACE_OUTER_BOUND ( 'NONE', #430, .T. ) ;
#581 = CARTESIAN_POINT ( 'NONE',  ( -5.590417451878278700E-17, 2.000000000000000000, 3.469446951953614189E-15 ) ) ;
#582 = ORIENTED_EDGE ( 'NONE', *, *, #905, .F. ) ;
#583 = PRODUCT_RELATED_PRODUCT_CATEGORY ( 'part', '', ( #683 ) ) ;
#584 = VECTOR ( 'NONE', #970, 1000.000000000000114 ) ;
#585 = AXIS2_PLACEMENT_3D ( 'NONE', #428, #805, #812 ) ;
#586 = DIRECTION ( 'NONE',  ( -1.582898502718374752E-55, -1.000000000000000000, 1.058335477494178735E-47 ) ) ;
#587 = AXIS2_PLACEMENT_3D ( 'NONE', #732, #103, #75 ) ;
#588 = CIRCLE ( 'NONE', #708, 0.1999999999999999001 ) ;
#589 = DIRECTION ( 'NONE',  ( 0.000000000000000000, -0.000000000000000000, -1.000000000000000000 ) ) ;
#590 = ORIENTED_EDGE ( 'NONE', *, *, #654, .F. ) ;
#591 = EDGE_CURVE ( 'NONE', #1020, #895, #400, .T. ) ;
#592 = CARTESIAN_POINT ( 'NONE',  ( 0.9000000000000001332, 2.000000000000000000, -0.09999999999999653610 ) ) ;
#593 = DIRECTION ( 'NONE',  ( 0.000000000000000000, -1.000000000000000000, 0.000000000000000000 ) ) ;
#594 = EDGE_LOOP ( 'NONE', ( #634, #233, #639, #161 ) ) ;
#595 = DIRECTION ( 'NONE',  ( 0.000000000000000000, 0.000000000000000000, -1.000000000000000000 ) ) ;
#596 = VERTEX_POINT ( 'NONE', #692 ) ;
#597 = DIRECTION ( 'NONE',  ( -0.000000000000000000, -1.000000000000000000, -0.000000000000000000 ) ) ;
#598 = EDGE_CURVE ( 'NONE', #653, #1176, #1074, .T. ) ;
#599 = DIRECTION ( 'NONE',  ( -6.023345402697246719E-17, 0.000000000000000000, 1.000000000000000000 ) ) ;
#600 = ORIENTED_EDGE ( 'NONE', *, *, #96, .F. ) ;
#601 = FACE_BOUND ( 'NONE', #132, .T. ) ;
#602 = PLANE ( 'NONE',  #509 ) ;
#603 = AXIS2_PLACEMENT_3D ( 'NONE', #84, #179, #845 ) ;
#604 = CARTESIAN_POINT ( 'NONE',  ( -3.200000000000000178, 16.50468449440942464, 2.299999999999999378 ) ) ;
#605 = EDGE_CURVE ( 'NONE', #766, #367, #873, .T. ) ;
#606 = VECTOR ( 'NONE', #1098, 1000.000000000000000 ) ;
#607 = CIRCLE ( 'NONE', #197, 0.2500000000000000000 ) ;
#608 = ORIENTED_EDGE ( 'NONE', *, *, #780, .T. ) ;
#609 = EDGE_CURVE ( 'NONE', #901, #895, #164, .T. ) ;
#610 = DIRECTION ( 'NONE',  ( -6.023345402697246719E-17, 0.000000000000000000, 1.000000000000000000 ) ) ;
#611 = PRODUCT_DEFINITION_FORMATION_WITH_SPECIFIED_SOURCE ( 'ไป', '', #683, .NOT_KNOWN. ) ;
#612 = CARTESIAN_POINT ( 'NONE',  ( 1.975000014956492800, 11.90923282886482149, -1.000000000000001110 ) ) ;
#613 = ORIENTED_EDGE ( 'NONE', *, *, #605, .F. ) ;
#614 = PLANE ( 'NONE',  #649 ) ;
#615 = EDGE_CURVE ( 'NONE', #760, #302, #1105, .T. ) ;
#616 = ORIENTED_EDGE ( 'NONE', *, *, #978, .F. ) ;
#617 = DIRECTION ( 'NONE',  ( 1.000000000000000000, -1.582898502718374752E-55, 1.675237642699271707E-102 ) ) ;
#618 = FACE_OUTER_BOUND ( 'NONE', #420, .T. ) ;
#619 = ORIENTED_EDGE ( 'NONE', *, *, #56, .T. ) ;
#620 = DIRECTION ( 'NONE',  ( 0.000000000000000000, 0.000000000000000000, -1.000000000000000000 ) ) ;
#621 = ORIENTED_EDGE ( 'NONE', *, *, #914, .F. ) ;
#622 = ADVANCED_FACE ( 'NONE', ( #918 ), #602, .F. ) ;
#623 = DIRECTION ( 'NONE',  ( -0.000000000000000000, -1.000000000000000000, -0.000000000000000000 ) ) ;
#624 = DIRECTION ( 'NONE',  ( 0.000000000000000000, 1.000000000000000000, 0.000000000000000000 ) ) ;
#625 = AXIS2_PLACEMENT_3D ( 'NONE', #1232, #376, #369 ) ;
#626 = ORIENTED_EDGE ( 'NONE', *, *, #968, .F. ) ;
#627 = DIRECTION ( 'NONE',  ( -0.000000000000000000, -1.000000000000000000, -0.000000000000000000 ) ) ;
#628 = TOROIDAL_SURFACE ( 'NONE', #830, 0.04999999999999999584, 0.2000000000000000111 ) ;
#629 = VERTEX_POINT ( 'NONE', #44 ) ;
#630 = CIRCLE ( 'NONE', #377, 1.975000014956492800 ) ;
#631 = DIRECTION ( 'NONE',  ( -1.582898502718374752E-55, -1.000000000000000000, 1.058335477494178735E-47 ) ) ;
#632 = EDGE_CURVE ( 'NONE', #895, #813, #248, .T. ) ;
#633 = DIRECTION ( 'NONE',  ( 0.7071067811865459074, -0.7071067811865491270, 0.000000000000000000 ) ) ;
#634 = ORIENTED_EDGE ( 'NONE', *, *, #1065, .F. ) ;
#635 = DIRECTION ( 'NONE',  ( 0.9932559821857752658, 0.000000000000000000, -0.1159420279802406417 ) ) ;
#636 = ORIENTED_EDGE ( 'NONE', *, *, #654, .T. ) ;
#637 = CARTESIAN_POINT ( 'NONE',  ( 1.713366599082580377, 4.678333878462996864, -0.9500000000000008438 ) ) ;
#638 = EDGE_CURVE ( 'NONE', #469, #917, #55, .T. ) ;
#639 = ORIENTED_EDGE ( 'NONE', *, *, #422, .T. ) ;
#640 = CARTESIAN_POINT ( 'NONE',  ( -3.200000000000000178, 3.678333878462997308, 2.299999999999999378 ) ) ;
#641 = ORIENTED_EDGE ( 'NONE', *, *, #143, .F. ) ;
#642 = DIRECTION ( 'NONE',  ( -1.582898502718374752E-55, -1.000000000000000000, 1.058335477494178735E-47 ) ) ;
#643 = DIRECTION ( 'NONE',  ( -6.023345402697245486E-17, 0.000000000000000000, 1.000000000000000000 ) ) ;
#644 = CARTESIAN_POINT ( 'NONE',  ( -1.763029368278884013, 5.178333878462996864, -1.205797101399013194 ) ) ;
#645 = DIRECTION ( 'NONE',  ( -1.582898502718374752E-55, -1.000000000000000000, 1.058335477494178735E-47 ) ) ;
#646 = TOROIDAL_SURFACE ( 'NONE', #1027, 1.775000014956492844, 0.2000000000000000111 ) ;
#647 = EDGE_CURVE ( 'NONE', #112, #407, #440, .T. ) ;
#648 = VERTEX_POINT ( 'NONE', #1210 ) ;
#649 = AXIS2_PLACEMENT_3D ( 'NONE', #521, #387, #46 ) ;
#650 = DIRECTION ( 'NONE',  ( 1.000000000000000000, -0.000000000000000000, 1.084202172485503251E-15 ) ) ;
#651 = DIRECTION ( 'NONE',  ( 1.000000000000000000, -0.000000000000000000, 0.000000000000000000 ) ) ;
#652 = ORIENTED_EDGE ( 'NONE', *, *, #780, .F. ) ;
#653 = VERTEX_POINT ( 'NONE', #519 ) ;
#654 = EDGE_CURVE ( 'NONE', #102, #311, #472, .T. ) ;
#655 = CARTESIAN_POINT ( 'NONE',  ( 3.200000000000000178, 16.50468449440942464, -2.299999999999999822 ) ) ;
#656 = CARTESIAN_POINT ( 'NONE',  ( -1.713366584126088554, 4.978333878462997575, 0.6499999999999992450 ) ) ;
#657 = CARTESIAN_POINT ( 'NONE',  ( -1.975000014956492800, 4.978333878462997575, -1.150000000000001021 ) ) ;
#658 = DIRECTION ( 'NONE',  ( -1.000000000000000000, -0.000000000000000000, -2.744815605759345430E-17 ) ) ;
#659 = ORIENTED_EDGE ( 'NONE', *, *, #239, .T. ) ;
#660 = LINE ( 'NONE', #637, #54 ) ;
#661 = PLANE ( 'NONE',  #603 ) ;
#662 = PLANE ( 'NONE',  #72 ) ;
#663 = CARTESIAN_POINT ( 'NONE',  ( -1.713366584126088554, 4.678333878462996864, 0.4499999999999992339 ) ) ;
#664 = EDGE_LOOP ( 'NONE', ( #92, #399, #323, #206 ) ) ;
#665 = AXIS2_PLACEMENT_3D ( 'NONE', #718, #724, #1099 ) ;
#666 = AXIS2_PLACEMENT_3D ( 'NONE', #556, #383, #562 ) ;
#667 = DIRECTION ( 'NONE',  ( 0.000000000000000000, 0.000000000000000000, -1.000000000000000000 ) ) ;
#668 = VECTOR ( 'NONE', #943, 1000.000000000000000 ) ;
#669 = FACE_OUTER_BOUND ( 'NONE', #565, .T. ) ;
#670 = CONICAL_SURFACE ( 'NONE', #750, 2.399999999999999023, 0.7853981633974456145 ) ;
#671 = EDGE_CURVE ( 'NONE', #653, #281, #1199, .T. ) ;
#672 = DIRECTION ( 'NONE',  ( 0.000000000000000000, 1.058335477494178735E-47, 1.000000000000000000 ) ) ;
#673 = DIRECTION ( 'NONE',  ( 0.000000000000000000, 0.000000000000000000, -1.000000000000000000 ) ) ;
#674 = ORIENTED_EDGE ( 'NONE', *, *, #10, .F. ) ;
#675 = DIRECTION ( 'NONE',  ( 1.000000000000000000, -1.582898502718374752E-55, 1.675237642699271707E-102 ) ) ;
#676 = DIRECTION ( 'NONE',  ( 0.000000000000000000, 1.000000000000000000, 0.000000000000000000 ) ) ;
#677 = ORIENTED_EDGE ( 'NONE', *, *, #609, .T. ) ;
#678 = CARTESIAN_POINT ( 'NONE',  ( 0.01402432844552688011, 5.178333878462996864, 0.6499999999999978018 ) ) ;
#679 = DIRECTION ( 'NONE',  ( 1.000000000000000000, 0.000000000000000000, 0.000000000000000000 ) ) ;
#680 = ORIENTED_EDGE ( 'NONE', *, *, #159, .T. ) ;
#681 = ADVANCED_FACE ( 'NONE', ( #697 ), #115, .T. ) ;
#682 = VECTOR ( 'NONE', #461, 1000.000000000000000 ) ;
#683 = PRODUCT ( 'Orbi_PowerSwitch', 'Orbi_PowerSwitch', '', ( #507 ) ) ;
#684 = CIRCLE ( 'NONE', #429, 1.975000014956492800 ) ;
#685 = CARTESIAN_POINT ( 'NONE',  ( -4.940986689993609777E-25, 11.90923282886482149, 0.4999999999999991673 ) ) ;
#686 = CIRCLE ( 'NONE', #967, 0.2000000000000000944 ) ;
#687 = VECTOR ( 'NONE', #431, 1000.000000000000000 ) ;
#688 = CARTESIAN_POINT ( 'NONE',  ( 1.713366584126088554, 4.678333878462996864, 0.4499999999999992339 ) ) ;
#689 = ORIENTED_EDGE ( 'NONE', *, *, #143, .T. ) ;
#690 = CARTESIAN_POINT ( 'NONE',  ( 0.000000000000000000, 0.1000000000000000056, -2.299999999999999378 ) ) ;
#691 = ADVANCED_FACE ( 'NONE', ( #1184 ), #817, .T. ) ;
#692 = CARTESIAN_POINT ( 'NONE',  ( -1.713366569169595399, 5.178333878462996864, -1.150000000000001021 ) ) ;
#693 = DIRECTION ( 'NONE',  ( 0.000000000000000000, 0.000000000000000000, 1.000000000000000000 ) ) ;
#694 = APPLICATION_PROTOCOL_DEFINITION ( 'draft international standard', 'automotive_design', 1998, #77 ) ;
#695 = EDGE_LOOP ( 'NONE', ( #272, #244, #924, #341 ) ) ;
#696 = FACE_OUTER_BOUND ( 'NONE', #120, .T. ) ;
#697 = FACE_OUTER_BOUND ( 'NONE', #714, .T. ) ;
#698 = EDGE_CURVE ( 'NONE', #965, #1020, #717, .T. ) ;
#699 = CARTESIAN_POINT ( 'NONE',  ( 0.000000000000000000, 0.09999999999999939493, 2.299999999999999378 ) ) ;
#700 = ORIENTED_EDGE ( 'NONE', *, *, #945, .T. ) ;
#701 = DIRECTION ( 'NONE',  ( 0.000000000000000000, 0.000000000000000000, -1.000000000000000000 ) ) ;
#702 = STYLED_ITEM ( 'NONE', ( #160 ), #249 ) ;
#703 = DIRECTION ( 'NONE',  ( -1.582898502718374752E-55, -1.000000000000000000, 1.058335477494178735E-47 ) ) ;
#704 = CIRCLE ( 'NONE', #1190, 1.975000014956492800 ) ;
#705 = CARTESIAN_POINT ( 'NONE',  ( 1.961680594629024776, 11.90923282886482149, -1.228985506995061483 ) ) ;
#706 = AXIS2_PLACEMENT_3D ( 'NONE', #342, #823, #1003 ) ;
#707 = EDGE_CURVE ( 'NONE', #867, #993, #1171, .T. ) ;
#708 = AXIS2_PLACEMENT_3D ( 'NONE', #350, #543, #635 ) ;
#709 = ORIENTED_EDGE ( 'NONE', *, *, #266, .F. ) ;
#710 = CARTESIAN_POINT ( 'NONE',  ( 0.000000000000000000, 16.50468449440942464, 2.299999999999999378 ) ) ;
#711 = ORIENTED_EDGE ( 'NONE', *, *, #598, .F. ) ;
#712 = CARTESIAN_POINT ( 'NONE',  ( -1.713366584126088554, 4.978333878462997575, 0.6999999999999992895 ) ) ;
#713 = LINE ( 'NONE', #45, #1025 ) ;
#714 = EDGE_LOOP ( 'NONE', ( #836, #1152, #385, #1113 ) ) ;
#715 = LINE ( 'NONE', #809, #101 ) ;
#716 = EDGE_LOOP ( 'NONE', ( #652, #269, #616, #800 ) ) ;
#717 = LINE ( 'NONE', #996, #1050 ) ;
#718 = CARTESIAN_POINT ( 'NONE',  ( 1.495649272461381952E-08, 11.90923282886482149, -0.9999999999999974465 ) ) ;
#719 = EDGE_LOOP ( 'NONE', ( #911, #359, #1101, #403 ) ) ;
#720 = PLANE ( 'NONE',  #280 ) ;
#721 = EDGE_LOOP ( 'NONE', ( #328, #822, #79, #781 ) ) ;
#722 = EDGE_CURVE ( 'NONE', #407, #520, #806, .T. ) ;
#723 = DIRECTION ( 'NONE',  ( -0.000000000000000000, -1.000000000000000000, 0.000000000000000000 ) ) ;
#724 = DIRECTION ( 'NONE',  ( -0.000000000000000000, -1.000000000000000000, -0.000000000000000000 ) ) ;
#725 = VECTOR ( 'NONE', #643, 1000.000000000000000 ) ;
#726 = ORIENTED_EDGE ( 'NONE', *, *, #64, .F. ) ;
#727 = DIRECTION ( 'NONE',  ( 0.000000000000000000, -0.000000000000000000, -1.000000000000000000 ) ) ;
#728 = AXIS2_PLACEMENT_3D ( 'NONE', #188, #852, #1239 ) ;
#729 = EDGE_LOOP ( 'NONE', ( #126, #1235, #574, #216 ) ) ;
#730 = VECTOR ( 'NONE', #153, 1000.000000000000000 ) ;
#731 = EDGE_CURVE ( 'NONE', #1176, #147, #434, .T. ) ;
#732 = CARTESIAN_POINT ( 'NONE',  ( -1.713366584126088554, 5.178333878462996864, 0.6999999999999992895 ) ) ;
#733 = FILL_AREA_STYLE_COLOUR ( '', #252 ) ;
#734 = ORIENTED_EDGE ( 'NONE', *, *, #482, .F. ) ;
#735 = CARTESIAN_POINT ( 'NONE',  ( -1.713366569169595399, 4.978333878462997575, -1.200000000000001066 ) ) ;
#736 = ORIENTED_EDGE ( 'NONE', *, *, #218, .T. ) ;
#737 = DIRECTION ( 'NONE',  ( -1.582898502718374752E-55, -1.000000000000000000, 1.058335477494178735E-47 ) ) ;
#738 = DIRECTION ( 'NONE',  ( -0.000000000000000000, -0.000000000000000000, -1.000000000000000000 ) ) ;
#739 = ADVANCED_FACE ( 'NONE', ( #991 ), #628, .T. ) ;
#740 = CARTESIAN_POINT ( 'NONE',  ( 1.713366599082580377, 4.978333878462997575, -0.9500000000000008438 ) ) ;
#741 = DIRECTION ( 'NONE',  ( 0.000000000000000000, 0.000000000000000000, -1.000000000000000000 ) ) ;
#742 = VERTEX_POINT ( 'NONE', #157 ) ;
#743 = DIRECTION ( 'NONE',  ( 1.000000000000000000, 1.084202172485506209E-15, 0.000000000000000000 ) ) ;
#744 = CARTESIAN_POINT ( 'NONE',  ( 1.495649272461381952E-08, 4.978333878462997575, -0.9999999999999974465 ) ) ;
#745 = CARTESIAN_POINT ( 'NONE',  ( 3.200000000000000178, 0.9000000000000050182, -2.299999999999999378 ) ) ;
#746 = EDGE_CURVE ( 'NONE', #795, #766, #897, .T. ) ;
#747 = AXIS2_PLACEMENT_3D ( 'NONE', #95, #1139, #853 ) ;
#748 = ORIENTED_EDGE ( 'NONE', *, *, #484, .F. ) ;
#749 = AXIS2_PLACEMENT_3D ( 'NONE', #903, #258, #237 ) ;
#750 = AXIS2_PLACEMENT_3D ( 'NONE', #989, #877, #516 ) ;
#751 = CARTESIAN_POINT ( 'NONE',  ( 2.399999999999999023, 0.1000000000000000056, 2.299999999999999378 ) ) ;
#752 = CARTESIAN_POINT ( 'NONE',  ( -3.200000000000000178, 3.678333878462997308, 5.500000000000000000 ) ) ;
#753 = FACE_OUTER_BOUND ( 'NONE', #307, .T. ) ;
#754 = DIRECTION ( 'NONE',  ( -0.000000000000000000, -1.000000000000000000, -0.000000000000000000 ) ) ;
#755 = ORIENTED_EDGE ( 'NONE', *, *, #731, .F. ) ;
#756 = DIRECTION ( 'NONE',  ( 0.000000000000000000, 0.000000000000000000, -1.000000000000000000 ) ) ;
#757 = DIRECTION ( 'NONE',  ( 1.582898502718374752E-55, 1.000000000000000000, -1.058335477494178735E-47 ) ) ;
#758 = CYLINDRICAL_SURFACE ( 'NONE', #1083, 0.2500000000000000000 ) ;
#759 = PLANE ( 'NONE',  #416 ) ;
#760 = VERTEX_POINT ( 'NONE', #49 ) ;
#761 = CARTESIAN_POINT ( 'NONE',  ( 1.495649272461381952E-08, 5.178333878462996864, -2.775000014956490180 ) ) ;
#762 = EDGE_CURVE ( 'NONE', #18, #1053, #355, .T. ) ;
#763 = CARTESIAN_POINT ( 'NONE',  ( -0.9000000000000002442, 0.09999999999999982514, -1.899999999999997025 ) ) ;
#764 = VERTEX_POINT ( 'NONE', #277 ) ;
#765 = CARTESIAN_POINT ( 'NONE',  ( -1.961680579672532510, 11.90923282886482149, 0.7289855069950593736 ) ) ;
#766 = VERTEX_POINT ( 'NONE', #839 ) ;
#767 = VECTOR ( 'NONE', #485, 1000.000000000000000 ) ;
#768 = VECTOR ( 'NONE', #1032, 1000.000000000000000 ) ;
#769 = AXIS2_PLACEMENT_3D ( 'NONE', #735, #645, #173 ) ;
#770 = EDGE_CURVE ( 'NONE', #407, #1142, #1234, .T. ) ;
#771 = DIRECTION ( 'NONE',  ( 7.529181753371557474E-17, 2.851496429621573001E-39, -1.000000000000000000 ) ) ;
#772 = CARTESIAN_POINT ( 'NONE',  ( 1.975000014956492800, 11.90923282886482149, 0.4999999999999989453 ) ) ;
#773 = CARTESIAN_POINT ( 'NONE',  ( 1.495649272461381952E-08, 4.978333878462997575, -2.975000014956490357 ) ) ;
#774 = EDGE_LOOP ( 'NONE', ( #537, #563, #246, #608 ) ) ;
#775 = LINE ( 'NONE', #977, #584 ) ;
#776 = EDGE_CURVE ( 'NONE', #993, #437, #568, .T. ) ;
#777 = ORIENTED_EDGE ( 'NONE', *, *, #598, .T. ) ;
#778 = CARTESIAN_POINT ( 'NONE',  ( 0.000000000000000000, 3.678333878462997308, -5.500000000000000000 ) ) ;
#779 = CARTESIAN_POINT ( 'NONE',  ( 0.000000000000000000, 0.1000000000000000056, 2.299999999999999378 ) ) ;
#780 = EDGE_CURVE ( 'NONE', #141, #9, #98, .T. ) ;
#781 = ORIENTED_EDGE ( 'NONE', *, *, #707, .F. ) ;
#782 = CARTESIAN_POINT ( 'NONE',  ( -1.713366584126088554, 11.90923282886482149, 0.6999999999999992895 ) ) ;
#783 = VECTOR ( 'NONE', #672, 1000.000000000000000 ) ;
#784 = PRODUCT_DEFINITION_SHAPE ( 'NONE', 'NONE',  #1012 ) ;
#785 = CIRCLE ( 'NONE', #904, 3.200000000000000178 ) ;
#786 = PLANE ( 'NONE',  #868 ) ;
#787 = TOROIDAL_SURFACE ( 'NONE', #907, 1.775000014956492844, 0.2000000000000000111 ) ;
#788 = AXIS2_PLACEMENT_3D ( 'NONE', #1009, #191, #1141 ) ;
#789 = LINE ( 'NONE', #604, #194 ) ;
#790 = ORIENTED_EDGE ( 'NONE', *, *, #218, .F. ) ;
#791 = CARTESIAN_POINT ( 'NONE',  ( 0.9000000000000001332, 0.09999999999999896472, -0.09999999999999653610 ) ) ;
#792 = EDGE_CURVE ( 'NONE', #1081, #18, #686, .T. ) ;
#793 = DIRECTION ( 'NONE',  ( -0.000000000000000000, -0.000000000000000000, 1.000000000000000000 ) ) ;
#794 = DIRECTION ( 'NONE',  ( 0.000000000000000000, 0.000000000000000000, -1.000000000000000000 ) ) ;
#795 = VERTEX_POINT ( 'NONE', #1138 ) ;
#796 = DIRECTION ( 'NONE',  ( 0.000000000000000000, -2.851496443976167134E-39, 1.000000000000000000 ) ) ;
#797 = EDGE_CURVE ( 'NONE', #242, #449, #362, .T. ) ;
#798 = DIRECTION ( 'NONE',  ( 1.906527704830303504E-31, 1.000000000000000000, 2.851496443976167134E-39 ) ) ;
#799 = CARTESIAN_POINT ( 'NONE',  ( 1.763029383235377168, 4.978333878462997575, 0.7057971013990111953 ) ) ;
#800 = ORIENTED_EDGE ( 'NONE', *, *, #417, .F. ) ;
#801 = DIRECTION ( 'NONE',  ( 0.000000000000000000, 0.000000000000000000, -1.000000000000000000 ) ) ;
#802 = DIRECTION ( 'NONE',  ( 0.000000000000000000, 0.000000000000000000, 1.000000000000000000 ) ) ;
#803 = EDGE_CURVE ( 'NONE', #742, #352, #939, .T. ) ;
#804 = CIRCLE ( 'NONE', #526, 1.775000014956492844 ) ;
#805 = DIRECTION ( 'NONE',  ( -1.582898502718374752E-55, -1.000000000000000000, 1.058335477494178735E-47 ) ) ;
#806 = CIRCLE ( 'NONE', #299, 0.2500000000000000000 ) ;
#807 = TOROIDAL_SURFACE ( 'NONE', #788, 0.04999999999999999584, 0.2000000000000000111 ) ;
#808 = ORIENTED_EDGE ( 'NONE', *, *, #1073, .T. ) ;
#809 = CARTESIAN_POINT ( 'NONE',  ( -0.9000000000000002442, 0.09999999999999982514, -1.899999999999997025 ) ) ;
#810 = ORIENTED_EDGE ( 'NONE', *, *, #834, .F. ) ;
#811 = CARTESIAN_POINT ( 'NONE',  ( -1.975000014956492800, 11.90923282886482149, 0.4999999999999988343 ) ) ;
#812 = DIRECTION ( 'NONE',  ( -1.675237642699271707E-102, -1.058335477494178735E-47, -1.000000000000000000 ) ) ;
#813 = VERTEX_POINT ( 'NONE', #540 ) ;
#814 = EDGE_CURVE ( 'NONE', #175, #648, #256, .T. ) ;
#815 = CARTESIAN_POINT ( 'NONE',  ( 1.713366584126088554, 5.178333878462996864, 0.6499999999999992450 ) ) ;
#816 = VERTEX_POINT ( 'NONE', #858 ) ;
#817 = CYLINDRICAL_SURFACE ( 'NONE', #706, 0.2500000000000000000 ) ;
#818 = DIRECTION ( 'NONE',  ( 0.000000000000000000, -0.7071067811865495711, -0.7071067811865455743 ) ) ;
#819 = ORIENTED_EDGE ( 'NONE', *, *, #573, .T. ) ;
#820 = CYLINDRICAL_SURFACE ( 'NONE', #887, 1.975000014956492800 ) ;
#821 = EDGE_CURVE ( 'NONE', #764, #1142, #984, .T. ) ;
#822 = ORIENTED_EDGE ( 'NONE', *, *, #891, .T. ) ;
#823 = DIRECTION ( 'NONE',  ( -0.000000000000000000, -1.000000000000000000, -0.000000000000000000 ) ) ;
#824 = AXIS2_PLACEMENT_3D ( 'NONE', #62, #624, #1186 ) ;
#825 = DIRECTION ( 'NONE',  ( 0.000000000000000000, 1.000000000000000000, 0.000000000000000000 ) ) ;
#826 = AXIS2_PLACEMENT_3D ( 'NONE', #799, #1093, #441 ) ;
#827 = AXIS2_PLACEMENT_3D ( 'NONE', #195, #569, #284 ) ;
#828 = ORIENTED_EDGE ( 'NONE', *, *, #331, .T. ) ;
#829 = CARTESIAN_POINT ( 'NONE',  ( 1.975000014956492800, 11.90923282886482149, -1.000000000000001110 ) ) ;
#830 = AXIS2_PLACEMENT_3D ( 'NONE', #145, #1103, #531 ) ;
#831 = ORIENTED_EDGE ( 'NONE', *, *, #266, .T. ) ;
#832 = CIRCLE ( 'NONE', #1129, 0.2500000000000000000 ) ;
#833 = CARTESIAN_POINT ( 'NONE',  ( 1.961680579672532510, 11.90923282886482149, 0.7289855069950593736 ) ) ;
#834 = EDGE_CURVE ( 'NONE', #1064, #449, #288, .T. ) ;
#835 = DIRECTION ( 'NONE',  ( 1.582898502718374752E-55, 1.000000000000000000, -1.058335477494178735E-47 ) ) ;
#836 = ORIENTED_EDGE ( 'NONE', *, *, #356, .F. ) ;
#837 = DIRECTION ( 'NONE',  ( -1.000000000000000000, 0.000000000000000000, 0.000000000000000000 ) ) ;
#838 = ORIENTED_EDGE ( 'NONE', *, *, #1178, .T. ) ;
#839 = CARTESIAN_POINT ( 'NONE',  ( -3.200000000000000178, 0.9000000000000050182, -2.299999999999999822 ) ) ;
#840 = EDGE_CURVE ( 'NONE', #302, #18, #660, .T. ) ;
#841 = DIRECTION ( 'NONE',  ( 0.000000000000000000, 0.000000000000000000, -1.000000000000000000 ) ) ;
#842 = FACE_OUTER_BOUND ( 'NONE', #664, .T. ) ;
#843 = EDGE_LOOP ( 'NONE', ( #953, #1039, #579, #63 ) ) ;
#844 = DIRECTION ( 'NONE',  ( 0.000000000000000000, -1.000000000000000000, 0.000000000000000000 ) ) ;
#845 = DIRECTION ( 'NONE',  ( -1.000000000000000000, 0.000000000000000000, -2.744815605759345430E-17 ) ) ;
#846 = VECTOR ( 'NONE', #91, 1000.000000000000000 ) ;
#847 = EDGE_LOOP ( 'NONE', ( #52, #1208, #636, #300, #961, #1201 ) ) ;
#848 = DIRECTION ( 'NONE',  ( 0.000000000000000000, 0.000000000000000000, 1.000000000000000000 ) ) ;
#849 = ORIENTED_EDGE ( 'NONE', *, *, #770, .T. ) ;
#850 = AXIS2_PLACEMENT_3D ( 'NONE', #712, #631, #1011 ) ;
#851 = AXIS2_PLACEMENT_3D ( 'NONE', #27, #134, #512 ) ;
#852 = DIRECTION ( 'NONE',  ( 0.000000000000000000, -1.000000000000000000, 0.000000000000000000 ) ) ;
#853 = DIRECTION ( 'NONE',  ( 0.000000000000000000, 0.000000000000000000, 1.000000000000000000 ) ) ;
#854 = ORIENTED_EDGE ( 'NONE', *, *, #954, .F. ) ;
#855 = CARTESIAN_POINT ( 'NONE',  ( 2.399999999999999023, 0.1000000000000000056, 2.299999999999999378 ) ) ;
#856 = ADVANCED_FACE ( 'NONE', ( #925 ), #1224, .T. ) ;
#857 = ORIENTED_EDGE ( 'NONE', *, *, #1185, .T. ) ;
#858 = CARTESIAN_POINT ( 'NONE',  ( 1.961680594629024776, 4.978333878462997575, -1.228985506995061483 ) ) ;
#859 = CARTESIAN_POINT ( 'NONE',  ( 1.495649272461381952E-08, 5.178333878462996864, -0.9999999999999974465 ) ) ;
#860 = DIRECTION ( 'NONE',  ( 0.7071067811865491270, -0.7071067811865459074, 0.000000000000000000 ) ) ;
#861 = CARTESIAN_POINT ( 'NONE',  ( 1.975000014956492800, 3.678333878462996864, 0.4999999999999989453 ) ) ;
#862 = EDGE_LOOP ( 'NONE', ( #689, #502, #110, #990 ) ) ;
#863 = EDGE_CURVE ( 'NONE', #629, #520, #453, .T. ) ;
#864 = CARTESIAN_POINT ( 'NONE',  ( 0.01402432844552688011, 5.178333878462996864, 23.10002255044652486 ) ) ;
#865 = CARTESIAN_POINT ( 'NONE',  ( 0.000000000000000000, 3.678333878462997308, 2.299999999999999378 ) ) ;
#866 = DIRECTION ( 'NONE',  ( 0.000000000000000000, 0.000000000000000000, -1.000000000000000000 ) ) ;
#867 = VERTEX_POINT ( 'NONE', #471 ) ;
#868 = AXIS2_PLACEMENT_3D ( 'NONE', #1069, #771, #1173 ) ;
#869 = ADVANCED_FACE ( 'NONE', ( #1024 ), #787, .T. ) ;
#870 = CARTESIAN_POINT ( 'NONE',  ( -4.940986689993609777E-25, 3.678333878462996864, 0.4999999999999991673 ) ) ;
#871 = FACE_OUTER_BOUND ( 'NONE', #847, .T. ) ;
#872 = ORIENTED_EDGE ( 'NONE', *, *, #310, .F. ) ;
#873 = LINE ( 'NONE', #23, #1028 ) ;
#874 = ADVANCED_FACE ( 'NONE', ( #554 ), #270, .T. ) ;
#875 = LINE ( 'NONE', #309, #32 ) ;
#876 = ORIENTED_EDGE ( 'NONE', *, *, #803, .F. ) ;
#877 = DIRECTION ( 'NONE',  ( 0.000000000000000000, 1.000000000000000000, 0.000000000000000000 ) ) ;
#878 = ORIENTED_EDGE ( 'NONE', *, *, #306, .F. ) ;
#879 = DIRECTION ( 'NONE',  ( 0.000000000000000000, 0.000000000000000000, -1.000000000000000000 ) ) ;
#880 = DIRECTION ( 'NONE',  ( 0.000000000000000000, -1.000000000000000000, 1.058335477494178735E-47 ) ) ;
#881 = VECTOR ( 'NONE', #105, 1000.000000000000000 ) ;
#882 = ORIENTED_EDGE ( 'NONE', *, *, #247, .F. ) ;
#883 = CARTESIAN_POINT ( 'NONE',  ( 0.9000000000000002442, 2.000000000000000000, -1.899999999999997025 ) ) ;
#884 = AXIS2_PLACEMENT_3D ( 'NONE', #940, #757, #1038 ) ;
#885 = CARTESIAN_POINT ( 'NONE',  ( -1.961680579672532510, 4.978333878462997575, 0.7289855069950593736 ) ) ;
#886 = CIRCLE ( 'NONE', #1151, 1.975000014956492800 ) ;
#887 = AXIS2_PLACEMENT_3D ( 'NONE', #1108, #627, #1207 ) ;
#888 = LINE ( 'NONE', #688, #525 ) ;
#889 = ORIENTED_EDGE ( 'NONE', *, *, #1227, .T. ) ;
#890 = DIRECTION ( 'NONE',  ( 0.000000000000000000, -1.000000000000000000, 0.000000000000000000 ) ) ;
#891 = EDGE_CURVE ( 'NONE', #494, #112, #136, .T. ) ;
#892 = ORIENTED_EDGE ( 'NONE', *, *, #25, .F. ) ;
#893 = CARTESIAN_POINT ( 'NONE',  ( -3.200000000000000178, 0.9000000000000050182, 2.299999999999999378 ) ) ;
#894 = UNCERTAINTY_MEASURE_WITH_UNIT (LENGTH_MEASURE( 1.000000000000000082E-05 ), #1135, 'distance_accuracy_value', 'NONE');
#895 = VERTEX_POINT ( 'NONE', #177 ) ;
#896 = CARTESIAN_POINT ( 'NONE',  ( 0.000000000000000000, 0.9000000000000050182, 2.299999999999999378 ) ) ;
#897 = LINE ( 'NONE', #1204, #215 ) ;
#898 = CARTESIAN_POINT ( 'NONE',  ( -2.399999999999999023, 0.1000000000000000056, 2.299999999999999378 ) ) ;
#899 = ORIENTED_EDGE ( 'NONE', *, *, #107, .F. ) ;
#900 = CARTESIAN_POINT ( 'NONE',  ( -1.713366569169595399, 4.978333878462997575, -0.9500000000000009548 ) ) ;
#901 = VERTEX_POINT ( 'NONE', #549 ) ;
#902 = VECTOR ( 'NONE', #500, 1000.000000000000000 ) ;
#903 = CARTESIAN_POINT ( 'NONE',  ( 1.713366599082580599, 4.678333878462996864, -1.200000000000001066 ) ) ;
#904 = AXIS2_PLACEMENT_3D ( 'NONE', #541, #926, #1117 ) ;
#905 = EDGE_CURVE ( 'NONE', #816, #18, #607, .T. ) ;
#906 = DIRECTION ( 'NONE',  ( -0.000000000000000000, -1.000000000000000000, -0.000000000000000000 ) ) ;
#907 = AXIS2_PLACEMENT_3D ( 'NONE', #464, #737, #1036 ) ;
#908 = CIRCLE ( 'NONE', #851, 0.2000000000000000944 ) ;
#909 = EDGE_LOOP ( 'NONE', ( #487, #546, #467, #240 ) ) ;
#910 = FACE_OUTER_BOUND ( 'NONE', #463, .T. ) ;
#911 = ORIENTED_EDGE ( 'NONE', *, *, #840, .T. ) ;
#912 = DIRECTION ( 'NONE',  ( 0.000000000000000000, -1.000000000000000000, 0.000000000000000000 ) ) ;
#913 =( NAMED_UNIT ( * ) SI_UNIT ( $, .STERADIAN. ) SOLID_ANGLE_UNIT ( ) );
#914 = EDGE_CURVE ( 'NONE', #653, #929, #886, .T. ) ;
#915 = VERTEX_POINT ( 'NONE', #1177 ) ;
#916 = CARTESIAN_POINT ( 'NONE',  ( -7.914492513591874668E-56, 4.678333878462996864, 5.291677387470893677E-48 ) ) ;
#917 = VERTEX_POINT ( 'NONE', #121 ) ;
#918 = FACE_OUTER_BOUND ( 'NONE', #594, .T. ) ;
#919 = DIRECTION ( 'NONE',  ( -0.7071067811865491270, -0.7071067811865459074, 0.000000000000000000 ) ) ;
#920 = ADVANCED_FACE ( 'NONE', ( #142 ), #324, .T. ) ;
#921 = ORIENTED_EDGE ( 'NONE', *, *, #1225, .T. ) ;
#922 = CARTESIAN_POINT ( 'NONE',  ( 1.975000014956492800, 4.678333878462996864, 0.4499999999999992339 ) ) ;
#923 = ADVANCED_FACE ( 'NONE', ( #222 ), #148, .T. ) ;
#924 = ORIENTED_EDGE ( 'NONE', *, *, #133, .T. ) ;
#925 = FACE_OUTER_BOUND ( 'NONE', #169, .T. ) ;
#926 = DIRECTION ( 'NONE',  ( 0.000000000000000000, 1.000000000000000000, 0.000000000000000000 ) ) ;
#927 =( GEOMETRIC_REPRESENTATION_CONTEXT ( 3 ) GLOBAL_UNCERTAINTY_ASSIGNED_CONTEXT ( ( #1175 ) ) GLOBAL_UNIT_ASSIGNED_CONTEXT ( ( #1212, #1088, #913 ) ) REPRESENTATION_CONTEXT ( 'NONE', 'WORKASPACE' ) );
#928 = VECTOR ( 'NONE', #623, 1000.000000000000000 ) ;
#929 = VERTEX_POINT ( 'NONE', #241 ) ;
#930 = DIRECTION ( 'NONE',  ( 0.000000000000000000, 0.000000000000000000, -1.000000000000000000 ) ) ;
#931 = AXIS2_PLACEMENT_3D ( 'NONE', #690, #890, #41 ) ;
#932 = ORIENTED_EDGE ( 'NONE', *, *, #1118, .F. ) ;
#933 = ADVANCED_FACE ( 'NONE', ( #696 ), #575, .F. ) ;
#934 = CARTESIAN_POINT ( 'NONE',  ( 1.713366599082580599, 4.978333878462997575, -1.200000000000001066 ) ) ;
#935 = CARTESIAN_POINT ( 'NONE',  ( 3.200000000000000178, 0.9000000000000050182, 2.299999999999999378 ) ) ;
#936 = LINE ( 'NONE', #85, #682 ) ;
#937 = DIRECTION ( 'NONE',  ( 0.000000000000000000, -1.000000000000000000, 0.000000000000000000 ) ) ;
#938 = EDGE_LOOP ( 'NONE', ( #149, #1167, #26, #458 ) ) ;
#939 = LINE ( 'NONE', #655, #768 ) ;
#940 = CARTESIAN_POINT ( 'NONE',  ( 0.000000000000000000, 3.678333878462997308, -2.299999999999999378 ) ) ;
#941 = ORIENTED_EDGE ( 'NONE', *, *, #746, .F. ) ;
#942 = ORIENTED_EDGE ( 'NONE', *, *, #247, .T. ) ;
#943 = DIRECTION ( 'NONE',  ( 1.000000000000000000, 0.000000000000000000, 0.000000000000000000 ) ) ;
#944 = CARTESIAN_POINT ( 'NONE',  ( 1.763029398191869435, 5.178333878462996864, -1.205797101399013194 ) ) ;
#945 = EDGE_CURVE ( 'NONE', #209, #198, #127, .T. ) ;
#946 = ORIENTED_EDGE ( 'NONE', *, *, #1218, .T. ) ;
#947 = FACE_OUTER_BOUND ( 'NONE', #956, .T. ) ;
#948 = MECHANICAL_DESIGN_GEOMETRIC_PRESENTATION_REPRESENTATION (  '', ( #702 ), #927 ) ;
#949 = VERTEX_POINT ( 'NONE', #883 ) ;
#950 = CIRCLE ( 'NONE', #1214, 3.200000000000000178 ) ;
#951 = DIRECTION ( 'NONE',  ( 0.1159420279802422654, 0.000000000000000000, -0.9932559821857751547 ) ) ;
#952 = CARTESIAN_POINT ( 'NONE',  ( 3.200000000000000178, 3.678333878462997308, -2.299999999999999822 ) ) ;
#953 = ORIENTED_EDGE ( 'NONE', *, *, #356, .T. ) ;
#954 = EDGE_CURVE ( 'NONE', #760, #409, #178, .T. ) ;
#955 = DIRECTION ( 'NONE',  ( -0.000000000000000000, 1.000000000000000000, -1.058335477494178735E-47 ) ) ;
#956 = EDGE_LOOP ( 'NONE', ( #167, #921, #442, #878 ) ) ;
#957 = CARTESIAN_POINT ( 'NONE',  ( 0.000000000000000000, 16.50468449440942464, 5.500000000000000000 ) ) ;
#958 = DIRECTION ( 'NONE',  ( -1.582898502718374752E-55, -1.000000000000000000, 1.058335477494178735E-47 ) ) ;
#959 = LINE ( 'NONE', #181, #1123 ) ;
#960 = LINE ( 'NONE', #663, #433 ) ;
#961 = ORIENTED_EDGE ( 'NONE', *, *, #346, .T. ) ;
#962 = ADVANCED_FACE ( 'NONE', ( #34, #601 ), #614, .F. ) ;
#963 = DIRECTION ( 'NONE',  ( -1.582898502718374752E-55, -1.000000000000000000, 1.058335477494178735E-47 ) ) ;
#964 = CARTESIAN_POINT ( 'NONE',  ( 0.000000000000000000, 0.1000000000000000056, 4.699999999999999289 ) ) ;
#965 = VERTEX_POINT ( 'NONE', #791 ) ;
#966 = AXIS2_PLACEMENT_3D ( 'NONE', #38, #675, #1056 ) ;
#967 = AXIS2_PLACEMENT_3D ( 'NONE', #82, #650, #560 ) ;
#968 = EDGE_CURVE ( 'NONE', #209, #1064, #17, .T. ) ;
#969 = CARTESIAN_POINT ( 'NONE',  ( 1.495649272461381952E-08, 4.978333878462997575, -0.9999999999999974465 ) ) ;
#970 = DIRECTION ( 'NONE',  ( 0.000000000000000000, 0.7071067811865495711, -0.7071067811865455743 ) ) ;
#971 = ADVANCED_FACE ( 'NONE', ( #319 ), #670, .T. ) ;
#972 = CARTESIAN_POINT ( 'NONE',  ( 1.495649272461381952E-08, 4.978333878462997575, -0.9999999999999974465 ) ) ;
#973 = DIRECTION ( 'NONE',  ( 1.906527704830303504E-31, 1.000000000000000000, 2.851496443976167134E-39 ) ) ;
#974 = ORIENTED_EDGE ( 'NONE', *, *, #615, .F. ) ;
#975 = DIRECTION ( 'NONE',  ( 0.000000000000000000, 0.000000000000000000, -1.000000000000000000 ) ) ;
#976 = DIRECTION ( 'NONE',  ( 0.000000000000000000, 0.000000000000000000, 1.000000000000000000 ) ) ;
#977 = CARTESIAN_POINT ( 'NONE',  ( 0.000000000000000000, 0.1000000000000000056, -4.699999999999999289 ) ) ;
#978 = EDGE_CURVE ( 'NONE', #596, #1053, #908, .T. ) ;
#979 = ORIENTED_EDGE ( 'NONE', *, *, #273, .T. ) ;
#980 = DIRECTION ( 'NONE',  ( 1.000000000000000000, 0.000000000000000000, 0.000000000000000000 ) ) ;
#981 = VECTOR ( 'NONE', #315, 1000.000000000000114 ) ;
#982 = TOROIDAL_SURFACE ( 'NONE', #585, 1.775000014956492844, 0.2000000000000000111 ) ;
#983 = DIRECTION ( 'NONE',  ( -1.000000000000000000, 0.000000000000000000, 0.000000000000000000 ) ) ;
#984 = CIRCLE ( 'NONE', #1191, 0.05000000000000002359 ) ;
#985 = AXIS2_PLACEMENT_3D ( 'NONE', #710, #1144, #667 ) ;
#986 = DIRECTION ( 'NONE',  ( 0.000000000000000000, 0.000000000000000000, 1.000000000000000000 ) ) ;
#987 = EDGE_CURVE ( 'NONE', #1183, #347, #548, .T. ) ;
#988 = ORIENTED_EDGE ( 'NONE', *, *, #380, .F. ) ;
#989 = CARTESIAN_POINT ( 'NONE',  ( 0.000000000000000000, 0.09999999999999939493, -2.299999999999999822 ) ) ;
#990 = ORIENTED_EDGE ( 'NONE', *, *, #987, .F. ) ;
#991 = FACE_OUTER_BOUND ( 'NONE', #47, .T. ) ;
#992 = FACE_OUTER_BOUND ( 'NONE', #1017, .T. ) ;
#993 = VERTEX_POINT ( 'NONE', #1082 ) ;
#994 = CARTESIAN_POINT ( 'NONE',  ( 0.9000000000000002442, 0.09999999999999982514, -1.899999999999997025 ) ) ;
#995 = EDGE_CURVE ( 'NONE', #198, #449, #454, .T. ) ;
#996 = CARTESIAN_POINT ( 'NONE',  ( 0.9000000000000001332, -3.400000000000000355, -0.09999999999999653610 ) ) ;
#997 = DIRECTION ( 'NONE',  ( 0.000000000000000000, 0.000000000000000000, 1.000000000000000000 ) ) ;
#998 = VERTEX_POINT ( 'NONE', #761 ) ;
#999 = FACE_OUTER_BOUND ( 'NONE', #909, .T. ) ;
#1000 = VERTEX_POINT ( 'NONE', #994 ) ;
#1001 = ADVANCED_FACE ( 'NONE', ( #408 ), #334, .T. ) ;
#1002 = AXIS2_PLACEMENT_3D ( 'NONE', #24, #496, #880 ) ;
#1003 = DIRECTION ( 'NONE',  ( 0.000000000000000000, 0.000000000000000000, -1.000000000000000000 ) ) ;
#1004 = VECTOR ( 'NONE', #410, 1000.000000000000000 ) ;
#1005 = SURFACE_STYLE_USAGE ( .BOTH. , #243 ) ;
#1006 = VECTOR ( 'NONE', #423, 1000.000000000000000 ) ;
#1007 =( GEOMETRIC_REPRESENTATION_CONTEXT ( 3 ) GLOBAL_UNCERTAINTY_ASSIGNED_CONTEXT ( ( #894 ) ) GLOBAL_UNIT_ASSIGNED_CONTEXT ( ( #1135, #100, #111 ) ) REPRESENTATION_CONTEXT ( 'NONE', 'WORKASPACE' ) );
#1008 = ORIENTED_EDGE ( 'NONE', *, *, #133, .F. ) ;
#1009 = CARTESIAN_POINT ( 'NONE',  ( 1.713366584126088554, 4.978333878462997575, 0.6999999999999992895 ) ) ;
#1010 = ORIENTED_EDGE ( 'NONE', *, *, #184, .F. ) ;
#1011 = DIRECTION ( 'NONE',  ( -1.675237642699271707E-102, -1.058335477494178735E-47, -1.000000000000000000 ) ) ;
#1012 = PRODUCT_DEFINITION ( 'ๆ', '', #611, #227 ) ;
#1013 = CARTESIAN_POINT ( 'NONE',  ( 1.495649272461381952E-08, 3.678333878462996864, -2.975000014956490357 ) ) ;
#1014 = ADVANCED_FACE ( 'NONE', ( #1051 ), #202, .T. ) ;
#1015 = ORIENTED_EDGE ( 'NONE', *, *, #466, .F. ) ;
#1016 = CARTESIAN_POINT ( 'NONE',  ( 0.9000000000000001332, 2.000000000000000000, -0.09999999999999653610 ) ) ;
#1017 = EDGE_LOOP ( 'NONE', ( #1055, #152, #882, #81 ) ) ;
#1018 = DIRECTION ( 'NONE',  ( 0.000000000000000000, -1.000000000000000000, 0.000000000000000000 ) ) ;
#1019 = CARTESIAN_POINT ( 'NONE',  ( 2.399999999999999023, 0.1000000000000000056, 2.299999999999999378 ) ) ;
#1020 = VERTEX_POINT ( 'NONE', #1016 ) ;
#1021 = ADVANCED_FACE ( 'NONE', ( #457 ), #1120, .F. ) ;
#1022 = DIRECTION ( 'NONE',  ( 1.000000000000000000, 0.000000000000000000, 0.000000000000000000 ) ) ;
#1023 = ORIENTED_EDGE ( 'NONE', *, *, #83, .T. ) ;
#1024 = FACE_OUTER_BOUND ( 'NONE', #221, .T. ) ;
#1025 = VECTOR ( 'NONE', #818, 1000.000000000000114 ) ;
#1026 = FACE_OUTER_BOUND ( 'NONE', #719, .T. ) ;
#1027 = AXIS2_PLACEMENT_3D ( 'NONE', #972, #963, #29 ) ;
#1028 = VECTOR ( 'NONE', #404, 1000.000000000000114 ) ;
#1029 = DIRECTION ( 'NONE',  ( -0.000000000000000000, -1.000000000000000000, -0.000000000000000000 ) ) ;
#1030 = CARTESIAN_POINT ( 'NONE',  ( 3.200000000000000178, 3.678333878462997308, 2.299999999999999378 ) ) ;
#1031 = ORIENTED_EDGE ( 'NONE', *, *, #466, .T. ) ;
#1032 = DIRECTION ( 'NONE',  ( -0.000000000000000000, 1.000000000000000000, -0.000000000000000000 ) ) ;
#1033 = CARTESIAN_POINT ( 'NONE',  ( 2.399999999999999467, 0.1000000000000000056, -2.299999999999999822 ) ) ;
#1034 = CARTESIAN_POINT ( 'NONE',  ( 2.399999999999999023, 0.1000000000000000056, 2.299999999999999378 ) ) ;
#1035 = ORIENTED_EDGE ( 'NONE', *, *, #510, .F. ) ;
#1036 = DIRECTION ( 'NONE',  ( -1.675237642699271707E-102, -1.058335477494178735E-47, -1.000000000000000000 ) ) ;
#1037 = ADVANCED_FACE ( 'NONE', ( #168 ), #345, .F. ) ;
#1038 = DIRECTION ( 'NONE',  ( 0.000000000000000000, 0.000000000000000000, -1.000000000000000000 ) ) ;
#1039 = ORIENTED_EDGE ( 'NONE', *, *, #523, .F. ) ;
#1040 = DIRECTION ( 'NONE',  ( -1.495649104565898617E-08, 1.058335477494178857E-47, 0.9999999999999998890 ) ) ;
#1041 = ORIENTED_EDGE ( 'NONE', *, *, #1162, .T. ) ;
#1042 = CARTESIAN_POINT ( 'NONE',  ( 0.000000000000000000, 16.50468449440942464, -2.299999999999999378 ) ) ;
#1043 = EDGE_CURVE ( 'NONE', #816, #389, #217, .T. ) ;
#1044 = DIRECTION ( 'NONE',  ( 0.000000000000000000, 1.000000000000000000, 0.000000000000000000 ) ) ;
#1045 = CARTESIAN_POINT ( 'NONE',  ( -2.399999999999999023, 0.1000000000000000056, -2.299999999999999822 ) ) ;
#1046 = LINE ( 'NONE', #481, #1154 ) ;
#1047 = VECTOR ( 'NONE', #679, 1000.000000000000000 ) ;
#1048 = CIRCLE ( 'NONE', #1104, 3.199999999999999734 ) ;
#1049 = ORIENTED_EDGE ( 'NONE', *, *, #501, .T. ) ;
#1050 = VECTOR ( 'NONE', #445, 1000.000000000000000 ) ;
#1051 = FACE_OUTER_BOUND ( 'NONE', #721, .T. ) ;
#1052 = CARTESIAN_POINT ( 'NONE',  ( -1.975000014956492800, 3.678333878462996864, -1.000000000000000666 ) ) ;
#1053 = VERTEX_POINT ( 'NONE', #900 ) ;
#1054 = ADVANCED_FACE ( 'NONE', ( #999 ), #720, .T. ) ;
#1055 = ORIENTED_EDGE ( 'NONE', *, *, #605, .T. ) ;
#1056 = DIRECTION ( 'NONE',  ( 0.000000000000000000, 1.000000000000000000, 0.000000000000000000 ) ) ;
#1057 = FACE_OUTER_BOUND ( 'NONE', #695, .T. ) ;
#1058 = CARTESIAN_POINT ( 'NONE',  ( -1.975000014956492800, 4.678333878462996864, 0.4999999999999988343 ) ) ;
#1059 = ADVANCED_FACE ( 'NONE', ( #910 ), #820, .T. ) ;
#1060 = VERTEX_POINT ( 'NONE', #65 ) ;
#1061 = CARTESIAN_POINT ( 'NONE',  ( -3.200000000000000178, 16.50468449440942464, 5.500000000000000000 ) ) ;
#1062 = DIRECTION ( 'NONE',  ( 0.000000000000000000, 1.000000000000000000, -0.000000000000000000 ) ) ;
#1063 = AXIS2_PLACEMENT_3D ( 'NONE', #865, #14, #119 ) ;
#1064 = VERTEX_POINT ( 'NONE', #1030 ) ;
#1065 = EDGE_CURVE ( 'NONE', #915, #409, #538, .T. ) ;
#1066 = VECTOR ( 'NONE', #203, 1000.000000000000000 ) ;
#1067 = VECTOR ( 'NONE', #1230, 1000.000000000000000 ) ;
#1068 = TOROIDAL_SURFACE ( 'NONE', #769, 0.04999999999999999584, 0.2000000000000000111 ) ;
#1069 = CARTESIAN_POINT ( 'NONE',  ( 0.9000000000000001332, -3.400000000000000355, -0.09999999999999653610 ) ) ;
#1070 = CARTESIAN_POINT ( 'NONE',  ( 0.000000000000000000, 0.1000000000000000056, 2.299999999999999378 ) ) ;
#1071 = ORIENTED_EDGE ( 'NONE', *, *, #10, .T. ) ;
#1072 = CARTESIAN_POINT ( 'NONE',  ( 1.495649272461381952E-08, 4.678333878462996864, -0.9999999999999974465 ) ) ;
#1073 = EDGE_CURVE ( 'NONE', #520, #494, #630, .T. ) ;
#1074 = LINE ( 'NONE', #1160, #156 ) ;
#1075 = FACE_OUTER_BOUND ( 'NONE', #228, .T. ) ;
#1076 = ORIENTED_EDGE ( 'NONE', *, *, #1156, .F. ) ;
#1077 = DIRECTION ( 'NONE',  ( 0.000000000000000000, -1.000000000000000000, 0.000000000000000000 ) ) ;
#1078 = DIRECTION ( 'NONE',  ( 0.000000000000000000, 0.000000000000000000, -1.000000000000000000 ) ) ;
#1079 = EDGE_CURVE ( 'NONE', #648, #494, #588, .T. ) ;
#1080 = CARTESIAN_POINT ( 'NONE',  ( -0.9000000000000002442, 2.000000000000000000, -1.899999999999997025 ) ) ;
#1081 = VERTEX_POINT ( 'NONE', #443 ) ;
#1082 = CARTESIAN_POINT ( 'NONE',  ( -1.713366584126088554, 4.678333878462996864, 0.4499999999999992339 ) ) ;
#1083 = AXIS2_PLACEMENT_3D ( 'NONE', #1228, #1029, #1140 ) ;
#1084 = AXIS2_PLACEMENT_3D ( 'NONE', #90, #1044, #465 ) ;
#1085 = AXIS2_PLACEMENT_3D ( 'NONE', #234, #503, #610 ) ;
#1086 = CARTESIAN_POINT ( 'NONE',  ( 0.000000000000000000, 0.1000000000000000056, 2.299999999999999378 ) ) ;
#1087 = AXIS2_PLACEMENT_3D ( 'NONE', #340, #1095, #620 ) ;
#1088 =( NAMED_UNIT ( * ) PLANE_ANGLE_UNIT ( ) SI_UNIT ( $, .RADIAN. ) );
#1089 = ORIENTED_EDGE ( 'NONE', *, *, #89, .F. ) ;
#1090 = ADVANCED_FACE ( 'NONE', ( #274 ), #1068, .T. ) ;
#1091 = DIRECTION ( 'NONE',  ( 0.000000000000000000, -1.000000000000000000, -2.851496443976167134E-39 ) ) ;
#1092 = ORIENTED_EDGE ( 'NONE', *, *, #484, .T. ) ;
#1093 = DIRECTION ( 'NONE',  ( 0.1159420279802406417, 0.000000000000000000, -0.9932559821857752658 ) ) ;
#1094 = ORIENTED_EDGE ( 'NONE', *, *, #482, .T. ) ;
#1095 = DIRECTION ( 'NONE',  ( 1.582898502718374752E-55, 1.000000000000000000, -1.058335477494178735E-47 ) ) ;
#1096 = EDGE_CURVE ( 'NONE', #409, #1060, #182, .T. ) ;
#1097 = ORIENTED_EDGE ( 'NONE', *, *, #707, .T. ) ;
#1098 = DIRECTION ( 'NONE',  ( -0.000000000000000000, -1.000000000000000000, -0.000000000000000000 ) ) ;
#1099 = DIRECTION ( 'NONE',  ( 0.000000000000000000, 0.000000000000000000, -1.000000000000000000 ) ) ;
#1100 = EDGE_LOOP ( 'NONE', ( #942, #590, #790, #1076 ) ) ;
#1101 = ORIENTED_EDGE ( 'NONE', *, *, #1195, .T. ) ;
#1102 = AXIS2_PLACEMENT_3D ( 'NONE', #779, #593, #794 ) ;
#1103 = DIRECTION ( 'NONE',  ( -1.582898502718374752E-55, -1.000000000000000000, 1.058335477494178735E-47 ) ) ;
#1104 = AXIS2_PLACEMENT_3D ( 'NONE', #1112, #825, #265 ) ;
#1105 = CIRCLE ( 'NONE', #749, 0.2500000000000000000 ) ;
#1106 = VECTOR ( 'NONE', #398, 1000.000000000000000 ) ;
#1107 = VERTEX_POINT ( 'NONE', #640 ) ;
#1108 = CARTESIAN_POINT ( 'NONE',  ( 1.495649272461381952E-08, 11.90923282886482149, -0.9999999999999974465 ) ) ;
#1109 = EDGE_LOOP ( 'NONE', ( #183, #808, #857, #1215, #1163, #497, #486, #22 ) ) ;
#1110 = CARTESIAN_POINT ( 'NONE',  ( -1.975000014956492800, 4.978333878462997575, -0.9500000000000009548 ) ) ;
#1111 = EDGE_CURVE ( 'NONE', #929, #141, #1216, .T. ) ;
#1112 = CARTESIAN_POINT ( 'NONE',  ( 0.000000000000000000, 0.9000000000000050182, -2.299999999999999822 ) ) ;
#1113 = ORIENTED_EDGE ( 'NONE', *, *, #814, .F. ) ;
#1114 = DIRECTION ( 'NONE',  ( 6.023345402697246719E-17, 0.000000000000000000, -1.000000000000000000 ) ) ;
#1115 = EDGE_LOOP ( 'NONE', ( #87, #1223, #1196, #1010 ) ) ;
#1116 = CARTESIAN_POINT ( 'NONE',  ( -1.713366584126088554, 4.978333878462997575, 0.6999999999999992895 ) ) ;
#1117 = DIRECTION ( 'NONE',  ( 0.000000000000000000, 0.000000000000000000, -1.000000000000000000 ) ) ;
#1118 = EDGE_CURVE ( 'NONE', #349, #1000, #715, .T. ) ;
#1119 = EDGE_LOOP ( 'NONE', ( #7, #1094, #677, #28 ) ) ;
#1120 = PLANE ( 'NONE',  #37 ) ;
#1121 = ORIENTED_EDGE ( 'NONE', *, *, #797, .T. ) ;
#1122 = CARTESIAN_POINT ( 'NONE',  ( -1.763029368278884013, 4.978333878462997575, -1.205797101399013194 ) ) ;
#1123 = VECTOR ( 'NONE', #186, 1000.000000000000000 ) ;
#1124 = LINE ( 'NONE', #752, #254 ) ;
#1125 = CIRCLE ( 'NONE', #827, 2.399999999999999467 ) ;
#1126 = AXIS2_PLACEMENT_3D ( 'NONE', #498, #229, #701 ) ;
#1127 = ORIENTED_EDGE ( 'NONE', *, *, #231, .F. ) ;
#1128 = DIRECTION ( 'NONE',  ( 0.000000000000000000, 0.000000000000000000, 1.000000000000000000 ) ) ;
#1129 = AXIS2_PLACEMENT_3D ( 'NONE', #379, #564, #1158 ) ;
#1130 = EDGE_CURVE ( 'NONE', #648, #764, #396, .T. ) ;
#1131 = EDGE_LOOP ( 'NONE', ( #1159, #932, #899, #734 ) ) ;
#1132 = CARTESIAN_POINT ( 'NONE',  ( 1.713366584126088554, 4.978333878462997575, 0.6499999999999992450 ) ) ;
#1133 = CARTESIAN_POINT ( 'NONE',  ( 1.713366599082580599, 5.178333878462996864, -1.200000000000001066 ) ) ;
#1134 = CARTESIAN_POINT ( 'NONE',  ( 0.9000000000000002442, -3.400000000000000355, -1.899999999999997025 ) ) ;
#1135 =( LENGTH_UNIT ( ) NAMED_UNIT ( * ) SI_UNIT ( .MILLI., .METRE. ) );
#1136 = ORIENTED_EDGE ( 'NONE', *, *, #954, .T. ) ;
#1137 = EDGE_CURVE ( 'NONE', #867, #1176, #259, .T. ) ;
#1138 = CARTESIAN_POINT ( 'NONE',  ( -3.200000000000000178, 3.678333878462997308, -2.299999999999999822 ) ) ;
#1139 = DIRECTION ( 'NONE',  ( 0.000000000000000000, 1.000000000000000000, 0.000000000000000000 ) ) ;
#1140 = DIRECTION ( 'NONE',  ( 0.000000000000000000, 0.000000000000000000, -1.000000000000000000 ) ) ;
#1141 = DIRECTION ( 'NONE',  ( -1.675237642699271707E-102, -1.058335477494178735E-47, -1.000000000000000000 ) ) ;
#1142 = VERTEX_POINT ( 'NONE', #815 ) ;
#1143 = ADVANCED_FACE ( 'NONE', ( #1202 ), #807, .T. ) ;
#1144 = DIRECTION ( 'NONE',  ( 0.000000000000000000, -1.000000000000000000, 0.000000000000000000 ) ) ;
#1145 = EDGE_CURVE ( 'NONE', #347, #242, #251, .T. ) ;
#1146 = CARTESIAN_POINT ( 'NONE',  ( -2.399999999999999467, 0.1000000000000000056, -2.299999999999999822 ) ) ;
#1147 = VECTOR ( 'NONE', #599, 1000.000000000000000 ) ;
#1148 = ORIENTED_EDGE ( 'NONE', *, *, #776, .F. ) ;
#1149 = LINE ( 'NONE', #572, #180 ) ;
#1150 = VECTOR ( 'NONE', #738, 1000.000000000000000 ) ;
#1151 = AXIS2_PLACEMENT_3D ( 'NONE', #1072, #5, #421 ) ;
#1152 = ORIENTED_EDGE ( 'NONE', *, *, #891, .F. ) ;
#1153 = VECTOR ( 'NONE', #368, 1000.000000000000000 ) ;
#1154 = VECTOR ( 'NONE', #199, 1000.000000000000000 ) ;
#1155 = CARTESIAN_POINT ( 'NONE',  ( 1.961680579672532510, 4.978333878462997575, 0.7289855069950593736 ) ) ;
#1156 = EDGE_CURVE ( 'NONE', #223, #198, #950, .T. ) ;
#1157 = DIRECTION ( 'NONE',  ( -0.000000000000000000, -1.000000000000000000, -0.000000000000000000 ) ) ;
#1158 = DIRECTION ( 'NONE',  ( 0.000000000000000000, 0.000000000000000000, -1.000000000000000000 ) ) ;
#1159 = ORIENTED_EDGE ( 'NONE', *, *, #130, .F. ) ;
#1160 = CARTESIAN_POINT ( 'NONE',  ( -1.975000014956492800, 4.678333878462996864, 0.4499999999999992339 ) ) ;
#1161 = PLANE ( 'NONE',  #1002 ) ;
#1162 = EDGE_CURVE ( 'NONE', #993, #112, #960, .T. ) ;
#1163 = ORIENTED_EDGE ( 'NONE', *, *, #731, .T. ) ;
#1164 = DIRECTION ( 'NONE',  ( 0.000000000000000000, 0.000000000000000000, -1.000000000000000000 ) ) ;
#1165 = LINE ( 'NONE', #30, #902 ) ;
#1166 = CIRCLE ( 'NONE', #212, 1.975000014956492800 ) ;
#1167 = ORIENTED_EDGE ( 'NONE', *, *, #722, .T. ) ;
#1168 = DIRECTION ( 'NONE',  ( -0.000000000000000000, -1.000000000000000000, -0.000000000000000000 ) ) ;
#1169 = AXIS2_PLACEMENT_3D ( 'NONE', #1061, #113, #495 ) ;
#1170 = ADVANCED_FACE ( 'NONE', ( #462 ), #759, .F. ) ;
#1171 = CIRCLE ( 'NONE', #278, 0.2500000000000000000 ) ;
#1172 = AXIS2_PLACEMENT_3D ( 'NONE', #533, #80, #268 ) ;
#1173 = DIRECTION ( 'NONE',  ( -1.000000000000000000, 0.000000000000000000, -7.529181753371557474E-17 ) ) ;
#1174 = CARTESIAN_POINT ( 'NONE',  ( 2.399999999999999467, 0.1000000000000000056, -2.299999999999999822 ) ) ;
#1175 = UNCERTAINTY_MEASURE_WITH_UNIT (LENGTH_MEASURE( 1.000000000000000082E-05 ), #1212, 'distance_accuracy_value', 'NONE');
#1176 = VERTEX_POINT ( 'NONE', #1058 ) ;
#1177 = CARTESIAN_POINT ( 'NONE',  ( 1.975000014956492800, 4.678333878462996864, 0.4999999999999989453 ) ) ;
#1178 = EDGE_CURVE ( 'NONE', #302, #122, #552, .T. ) ;
#1179 = LINE ( 'NONE', #326, #767 ) ;
#1180 = CARTESIAN_POINT ( 'NONE',  ( -1.713366569169595399, 4.678333878462996864, -0.9500000000000009548 ) ) ;
#1181 = ORIENTED_EDGE ( 'NONE', *, *, #1073, .F. ) ;
#1182 = CARTESIAN_POINT ( 'NONE',  ( 1.495649272461381952E-08, 4.678333878462996864, -0.9999999999999974465 ) ) ;
#1183 = VERTEX_POINT ( 'NONE', #292 ) ;
#1184 = FACE_OUTER_BOUND ( 'NONE', #517, .T. ) ;
#1185 = EDGE_CURVE ( 'NONE', #494, #867, #106, .T. ) ;
#1186 = DIRECTION ( 'NONE',  ( 0.000000000000000000, 0.000000000000000000, 1.000000000000000000 ) ) ;
#1187 = VERTEX_POINT ( 'NONE', #773 ) ;
#1188 = DIRECTION ( 'NONE',  ( 0.000000000000000000, -1.000000000000000000, 0.000000000000000000 ) ) ;
#1189 = ORIENTED_EDGE ( 'NONE', *, *, #231, .T. ) ;
#1190 = AXIS2_PLACEMENT_3D ( 'NONE', #870, #308, #976 ) ;
#1191 = AXIS2_PLACEMENT_3D ( 'NONE', #93, #88, #264 ) ;
#1192 = CARTESIAN_POINT ( 'NONE',  ( 0.000000000000000000, 16.50468449440942464, -5.500000000000000000 ) ) ;
#1193 = VECTOR ( 'NONE', #1197, 1000.000000000000000 ) ;
#1194 = CARTESIAN_POINT ( 'NONE',  ( -1.975000014956492800, 3.678333878462996864, -1.000000000000000666 ) ) ;
#1195 = EDGE_CURVE ( 'NONE', #1053, #122, #1046, .T. ) ;
#1196 = ORIENTED_EDGE ( 'NONE', *, *, #945, .F. ) ;
#1197 = DIRECTION ( 'NONE',  ( 0.000000000000000000, 0.000000000000000000, -1.000000000000000000 ) ) ;
#1198 = VERTEX_POINT ( 'NONE', #861 ) ;
#1199 = LINE ( 'NONE', #138, #928 ) ;
#1200 = CARTESIAN_POINT ( 'NONE',  ( 1.713366599082580377, 4.678333878462996864, -0.9500000000000008438 ) ) ;
#1201 = ORIENTED_EDGE ( 'NONE', *, *, #987, .T. ) ;
#1202 = FACE_OUTER_BOUND ( 'NONE', #365, .T. ) ;
#1203 = EDGE_LOOP ( 'NONE', ( #282, #192, #33, #1217 ) ) ;
#1204 = CARTESIAN_POINT ( 'NONE',  ( -3.200000000000000178, 16.50468449440942464, -2.299999999999999822 ) ) ;
#1205 = SURFACE_STYLE_FILL_AREA ( #68 ) ;
#1206 = ORIENTED_EDGE ( 'NONE', *, *, #834, .T. ) ;
#1207 = DIRECTION ( 'NONE',  ( 0.000000000000000000, 0.000000000000000000, -1.000000000000000000 ) ) ;
#1208 = ORIENTED_EDGE ( 'NONE', *, *, #89, .T. ) ;
#1209 = CIRCLE ( 'NONE', #826, 0.1999999999999999001 ) ;
#1210 = CARTESIAN_POINT ( 'NONE',  ( -1.763029383235377168, 5.178333878462996864, 0.7057971013990111953 ) ) ;
#1211 = CIRCLE ( 'NONE', #35, 1.775000014956492844 ) ;
#1212 =( LENGTH_UNIT ( ) NAMED_UNIT ( * ) SI_UNIT ( .MILLI., .METRE. ) );
#1213 = VECTOR ( 'NONE', #912, 1000.000000000000000 ) ;
#1214 = AXIS2_PLACEMENT_3D ( 'NONE', #286, #676, #866 ) ;
#1215 = ORIENTED_EDGE ( 'NONE', *, *, #1137, .T. ) ;
#1216 = LINE ( 'NONE', #51, #687 ) ;
#1217 = ORIENTED_EDGE ( 'NONE', *, *, #555, .F. ) ;
#1218 = EDGE_CURVE ( 'NONE', #437, #629, #570, .T. ) ;
#1219 = DIRECTION ( 'NONE',  ( 0.000000000000000000, 1.000000000000000000, 0.000000000000000000 ) ) ;
#1220 = LINE ( 'NONE', #364, #1150 ) ;
#1221 = CARTESIAN_POINT ( 'NONE',  ( 3.200000000000000178, 3.678333878462997308, 5.500000000000000000 ) ) ;
#1222 = DIRECTION ( 'NONE',  ( 0.000000000000000000, 0.000000000000000000, 1.000000000000000000 ) ) ;
#1223 = ORIENTED_EDGE ( 'NONE', *, *, #1156, .T. ) ;
#1224 = CYLINDRICAL_SURFACE ( 'NONE', #413, 3.200000000000000178 ) ;
#1225 = EDGE_CURVE ( 'NONE', #1053, #141, #832, .T. ) ;
#1226 = CARTESIAN_POINT ( 'NONE',  ( 1.975000014956492800, 4.678333878462996864, -1.000000000000001110 ) ) ;
#1227 = EDGE_CURVE ( 'NONE', #766, #223, #1149, .T. ) ;
#1228 = CARTESIAN_POINT ( 'NONE',  ( 1.713366584126088554, 11.90923282886482149, 0.6999999999999992895 ) ) ;
#1229 = ORIENTED_EDGE ( 'NONE', *, *, #64, .T. ) ;
#1230 = DIRECTION ( 'NONE',  ( 0.7071067811865459074, 0.7071067811865491270, 0.000000000000000000 ) ) ;
#1231 = VECTOR ( 'NONE', #633, 1000.000000000000000 ) ;
#1232 = CARTESIAN_POINT ( 'NONE',  ( 1.495649272461381952E-08, 3.678333878462996864, -0.9999999999999974465 ) ) ;
#1233 = VECTOR ( 'NONE', #418, 1000.000000000000000 ) ;
#1234 = CIRCLE ( 'NONE', #375, 0.1999999999999996503 ) ;
#1235 = ORIENTED_EDGE ( 'NONE', *, *, #821, .T. ) ;
#1236 = ADVANCED_FACE ( 'NONE', ( #947 ), #305, .T. ) ;
#1237 = DIRECTION ( 'NONE',  ( -1.582898502718374752E-55, -1.000000000000000000, 1.058335477494178735E-47 ) ) ;
#1238 = EDGE_LOOP ( 'NONE', ( #674, #73, #477, #988 ) ) ;
#1239 = DIRECTION ( 'NONE',  ( 0.000000000000000000, 0.000000000000000000, -1.000000000000000000 ) ) ;
#1240 = DIRECTION ( 'NONE',  ( -1.582898502718374752E-55, -1.000000000000000000, 1.058335477494178735E-47 ) ) ;
ENDSEC;
END-ISO-10303-21;
